  <svg width="60" height="60" viewBox="0 0 60 60" fill="none" xmlns="http://www.w3.org/2000/svg">
    <g clip-path="url(#clip0_142_191)">
    <path d="M30 60C46.5685 60 60 46.5685 60 30C60 13.4315 46.5685 0 30 0C13.4315 0 0 13.4315 0 30C0 46.5685 13.4315 60 30 60Z" fill="#FFDC29"/>
    <path d="M39.98 58.2978C49.1572 55.061 56.2873 47.488 58.9091 38.0383L34.4988 13.6279C34.4988 13.6279 24.1028 22.335 24.5296 24.7244L29.2989 29.4361L27.7019 46.0197L39.98 58.2978Z" fill="#FFA929"/>
    <path class="number" d="M34.4988 13.6279V46.0197H27.702V21.9892L24.5297 24.7244L20.0918 19.5763L26.5816 13.9806L26.9906 13.6279H34.4988Z" fill="#F8FFFB"/>
    <path class="number" d="M30 13.6279H34.4988V46.0197H30V13.6279Z" fill="#D8D8D8"/>
    </g>
    <defs>
    <clipPath id="clip0_142_191">
    <rect width="60" height="60" fill="white"/>
    </clipPath>
    </defs>
</svg>
                                