  <svg  viewBox="0 0 60 60" fill="none" xmlns="http://www.w3.org/2000/svg">
   <symbol id="two">
    <g clip-path="url(#clip0_142_208)">
    <path d="M30 60C46.5685 60 60 46.5685 60 30C60 13.4315 46.5685 0 30 0C13.4315 0 0 13.4315 0 30C0 46.5685 13.4315 60 30 60Z"/>
    <path d="M33.2331 59.8263C46.1278 58.4443 56.5764 48.8931 59.3027 36.4496L39.9589 17.1057C39.9589 17.1057 24.1332 16.6684 18.4167 26.0703L26.8405 34.5154L19.3392 46.0196L33.2331 59.8263Z" fill="#FFA929"/>
    <path class="num"  d="M42.4779 46.0196H19.3393V38.2092L34.1996 26.9588C36.0839 25.5322 35.6298 23.5429 35.4459 22.9672C35.2685 22.4126 34.5139 20.5976 32.2459 20.5314C32.1954 20.53 32.1065 20.5292 32.0709 20.5289H29.4433C25.5727 20.5289 25.272 24.7703 25.272 26.0703H18.4169C18.4169 18.7714 22.9511 13.6738 29.4433 13.6738L32.1096 13.6739C32.1096 13.6739 32.3337 13.6759 32.4453 13.6791C36.878 13.8086 40.6185 16.635 41.9755 20.8797C43.3499 25.1791 41.9219 29.7105 38.3375 32.4242L29.4345 39.1645H42.478V46.0196H42.4779Z" fill="white"/>
    <path class="num"  d="M38.3372 32.4235L30.4538 38.3922V29.7938L34.1993 26.9584C36.0833 25.5319 35.6294 23.5426 35.4462 22.9671C35.2689 22.4116 34.5136 20.5973 32.2455 20.5312C32.1947 20.5301 32.1061 20.5289 32.0706 20.5289H30.4537V13.6738H32.1096C32.1096 13.6738 32.333 13.6761 32.4452 13.6785C36.8774 13.8084 40.6181 16.6344 41.975 20.8799C43.3496 25.1784 41.9219 29.7099 38.3372 32.4235Z" />
    <path class="num" d="M30.4539 39.1641H42.4775V46.0192H30.4539V39.1641Z" fill="white"/>
    </g>
    <defs>
    <clipPath id="clip0_142_208">
    <rect  fill="white"/>
    </clipPath>
    </defs>
</svg>
