<svg width="60" height="60" viewBox="0 0 60 60" fill="none" xmlns="http://www.w3.org/2000/svg">
    <g clip-path="url(#clip0_142_225)">
    <path d="M30 60C46.5685 60 60 46.5685 60 30C60 13.4315 46.5685 0 30 0C13.4315 0 0 13.4315 0 30C0 46.5685 13.4315 60 30 60Z" fill="#FFCC29"/>
    <path d="M59.6294 34.7189L38.891 13.9805L17.9824 37.9723L38.721 58.7108C49.5749 55.4181 57.8246 46.1408 59.6294 34.7189Z" fill="#FFA929"/>
    <path class="num"  d="M38.891 31.1754V13.9805H30.0645L17.9824 31.3137V37.9723H32.0941V46.0196H38.891V37.9723H43.2352V31.1754H38.891ZM32.0941 31.1754H26.3637L32.0941 22.9559V31.1754Z" fill="#F8FFFB"/>
    <path class="num"  d="M38.891 31.1754V13.9805H30.0645L30 14.073V25.9594L32.0941 22.9559V31.1754H30V37.9723H32.0941V46.0196H38.891V37.9723H43.2352V31.1754H38.891Z" fill="#D8D8D8"/>
    </g>
    <defs>
    <clipPath id="clip0_142_225">
    <rect width="60" height="60" fill="white"/>
    </clipPath>
    </defs>
</svg>