<svg width="31" height="31" viewBox="0 0 31 31" fill="none" xmlns="http://www.w3.org/2000/svg">
<g clip-path="url(#clip0_1268_6)">
<path d="M8.7609 12.1304H6.06523C5.69323 12.1304 5.3913 12.4324 5.3913 12.8044V18.1956C5.3913 18.5676 5.69323 18.8696 6.06523 18.8696C6.43723 18.8696 6.73916 18.5676 6.73916 18.1956V13.4782H8.7609C9.1329 13.4782 9.43484 13.1763 9.43484 12.8043C9.43484 12.4323 9.1329 12.1304 8.7609 12.1304Z" fill="#FFCC29"/>
<path d="M7.41304 14.8261H6.06523C5.69323 14.8261 5.3913 15.128 5.3913 15.5C5.3913 15.872 5.69323 16.1739 6.06523 16.1739H7.41304C7.78504 16.1739 8.08697 15.872 8.08697 15.5C8.08697 15.128 7.78504 14.8261 7.41304 14.8261Z" fill="#FFCC29"/>
<path d="M15.5 0C6.95345 0 0 6.95345 0 15.5C0 24.0465 6.95345 30.9999 15.5 30.9999C24.0465 30.9999 30.9999 24.0465 30.9999 15.5C30.9999 6.95345 24.0465 0 15.5 0ZM15.5 29.6521C7.69606 29.6521 1.3478 23.3039 1.3478 15.5C1.3478 7.69606 7.69606 1.3478 15.5 1.3478C23.3039 1.3478 29.6521 7.69606 29.6521 15.5C29.6521 23.3039 23.3039 29.6521 15.5 29.6521Z" fill="white"/>
<path d="M24.4347 8.33898C22.2445 5.60964 18.9882 4.04349 15.5 4.04349C12.0118 4.04349 8.75546 5.60964 6.56522 8.33898C6.33202 8.62879 6.37789 9.05335 6.66902 9.28648C6.95882 9.51968 7.38339 9.47381 7.61519 9.18268C9.5493 6.77277 12.4229 5.39123 15.5 5.39123C18.5771 5.39123 21.4507 6.77277 23.3834 9.18268C23.5169 9.34846 23.7123 9.4347 23.9091 9.4347C24.0587 9.4347 24.207 9.38618 24.3309 9.28642C24.6221 9.05335 24.6679 8.62879 24.4347 8.33898Z" fill="white"/>
<path d="M23.781 22.4238C23.5141 22.1691 23.0855 22.1799 22.8294 22.4494C20.8953 24.486 18.2927 25.6087 15.5 25.6087C12.7072 25.6087 10.1046 24.4859 8.17185 22.4494C7.91711 22.1771 7.4885 22.1691 7.22031 22.4238C6.94807 22.6799 6.93859 23.1071 7.19472 23.3767C9.38496 25.6856 12.334 26.9565 15.5 26.9565C18.6661 26.9565 21.6151 25.6856 23.8066 23.3767C24.0627 23.1071 24.0519 22.6799 23.781 22.4238Z" fill="white"/>
<path d="M13.0658 16.1564C14.0577 16.0283 14.826 15.1779 14.826 14.1522C14.826 13.0375 13.9189 12.1304 12.8043 12.1304H11.4565C11.0845 12.1304 10.7825 12.4324 10.7825 12.8044V15.4946C10.7825 15.4973 10.7825 15.5014 10.7825 15.504V18.1956C10.7825 18.5676 11.0845 18.8696 11.4565 18.8696C11.8285 18.8696 12.1304 18.5676 12.1304 18.1956V17.1268L13.675 18.6728C13.8071 18.8035 13.9796 18.8696 14.1521 18.8696C14.3247 18.8696 14.4972 18.8036 14.6279 18.6715C14.8908 18.4086 14.8908 17.9813 14.6279 17.7185L13.0658 16.1564ZM12.1304 14.8261V13.4783H12.8043C13.175 13.4783 13.4783 13.7802 13.4783 14.1522C13.4783 14.5242 13.175 14.8262 12.8043 14.8262H12.1304V14.8261Z" fill="#FFCC29"/>
<path d="M19.5434 17.5217H17.5217V13.4782H19.5434C19.9154 13.4782 20.2174 13.1763 20.2174 12.8043C20.2174 12.4323 19.9154 12.1304 19.5434 12.1304H16.8478C16.4758 12.1304 16.1738 12.4324 16.1738 12.8044V18.1956C16.1738 18.5676 16.4758 18.8696 16.8478 18.8696H19.5434C19.9154 18.8696 20.2174 18.5676 20.2174 18.1956C20.2174 17.8236 19.9154 17.5217 19.5434 17.5217Z" fill="#FFCC29"/>
<path d="M18.1956 14.8261H16.8478C16.4758 14.8261 16.1739 15.128 16.1739 15.5C16.1739 15.872 16.4758 16.1739 16.8478 16.1739H18.1956C18.5676 16.1739 18.8696 15.872 18.8696 15.5C18.8696 15.128 18.5676 14.8261 18.1956 14.8261Z" fill="#FFCC29"/>
<path d="M24.9348 17.5217H22.9131V13.4782H24.9348C25.3068 13.4782 25.6087 13.1763 25.6087 12.8043C25.6087 12.4323 25.3068 12.1304 24.9348 12.1304H22.2391C21.8671 12.1304 21.5652 12.4324 21.5652 12.8044V18.1956C21.5652 18.5676 21.8671 18.8696 22.2391 18.8696H24.9348C25.3068 18.8696 25.6087 18.5676 25.6087 18.1956C25.6087 17.8236 25.3068 17.5217 24.9348 17.5217Z" fill="#FFCC29"/>
<path d="M23.5869 14.8261H22.2391C21.8671 14.8261 21.5652 15.128 21.5652 15.5C21.5652 15.872 21.8671 16.1739 22.2391 16.1739H23.5869C23.9589 16.1739 24.2609 15.872 24.2609 15.5C24.2609 15.128 23.9589 14.8261 23.5869 14.8261Z" fill="#FFCC29"/>
</g>
<defs>
<clipPath id="clip0_1268_6">
<rect width="31" height="31" fill="white"/>
</clipPath>
</defs>
</svg>
