<svg width="31" height="31" viewBox="0 0 31 31" fill="none" xmlns="http://www.w3.org/2000/svg">
<g clip-path="url(#clip0_100_904)">
<path d="M27.8956 3.01572C27.8344 2.97067 27.7634 2.94066 27.6885 2.92812C27.6135 2.91558 27.5366 2.92087 27.4641 2.94355C25.4456 3.46994 23.3301 3.50218 21.2965 3.03752C19.2358 2.6066 17.3357 1.61052 15.809 0.160812C15.7125 0.0616924 15.5812 0.004021 15.4428 0C15.3739 0.000827541 15.3059 0.0163804 15.2434 0.0456177C15.1809 0.074855 15.1254 0.117102 15.0805 0.169531C15.0631 0.189391 13.3034 2.19858 9.70397 3.03703C7.67028 3.50165 5.55461 3.46958 3.53594 2.94355C3.46339 2.92073 3.38648 2.91532 3.31145 2.92775C3.23642 2.94018 3.16537 2.97011 3.10405 3.0151C3.04274 3.0601 2.99288 3.1189 2.95851 3.18675C2.92415 3.2546 2.90625 3.32959 2.90625 3.40564V20.1607C2.90968 21.4397 3.26173 22.6935 3.92453 23.7874C4.58732 24.8813 5.53578 25.7738 6.66791 26.3689L15.22 30.9428C15.2901 30.9801 15.3681 30.9995 15.4474 30.9995C15.5267 30.9995 15.6048 30.9801 15.6749 30.9428L24.3311 26.3694C25.4635 25.7743 26.4122 24.8818 27.0752 23.7879C27.7382 22.6939 28.0903 21.4398 28.0938 20.1607V3.40564C28.0936 3.32966 28.0756 3.25478 28.0412 3.18705C28.0068 3.11931 27.9569 3.06062 27.8956 3.01572ZM27.125 20.1607C27.1217 21.2637 26.8178 22.3449 26.246 23.2881C25.6742 24.2313 24.8561 25.0009 23.8797 25.514L15.4516 29.9668L7.12516 25.5145C6.14782 25.0019 5.32875 24.2326 4.75606 23.2892C4.18338 22.3459 3.87877 21.2642 3.875 20.1607V4.02855C5.87083 4.45079 7.93458 4.43427 9.92339 3.98011C11.9808 3.53985 13.8879 2.5707 15.4564 1.16831C17.0649 2.5606 18.9967 3.52764 21.0752 3.98108C23.0645 4.43516 25.1288 4.45136 27.125 4.02855V20.1607Z" fill="white"/>
<path d="M15.7533 2.65051C15.6701 2.59049 15.5699 2.55848 15.4672 2.55909C15.3646 2.5597 15.2648 2.5929 15.1823 2.6539C13.6745 3.74478 11.9606 4.51737 10.1448 4.92465C8.58131 5.27986 6.97132 5.38418 5.37511 5.23368C5.30799 5.22718 5.24025 5.2349 5.17632 5.25635C5.11238 5.2778 5.05369 5.3125 5.00408 5.35817C4.95393 5.4033 4.91377 5.45841 4.88616 5.51997C4.85855 5.58153 4.84411 5.64817 4.84375 5.71564V20.1607C4.84799 21.0887 5.10511 21.9981 5.58748 22.7909C6.06985 23.5838 6.75921 24.2301 7.58144 24.6605L15.2258 28.7486C15.296 28.7863 15.3744 28.8059 15.454 28.8058C15.533 28.8057 15.6108 28.7864 15.6807 28.7496L23.4215 24.6591C24.2432 24.2287 24.932 23.5825 25.4139 22.7898C25.8957 21.9972 26.1524 21.0883 26.1562 20.1607V9.71706C26.1562 9.5886 26.1052 9.46539 26.0144 9.37455C25.9235 9.28372 25.8003 9.23268 25.6719 9.23268C25.5434 9.23268 25.4202 9.28372 25.3294 9.37455C25.2385 9.46539 25.1875 9.5886 25.1875 9.71706V20.1607C25.1835 20.9123 24.9747 21.6486 24.5835 22.2905C24.1924 22.9324 23.6338 23.4555 22.9676 23.8037L15.4554 27.7726L8.03723 23.8056C7.37007 23.4577 6.81038 22.9345 6.41838 22.2923C6.02638 21.65 5.81691 20.9131 5.8125 20.1607V6.23925C7.34017 6.33395 8.87352 6.20883 10.3656 5.86773C12.1948 5.45419 13.9288 4.69728 15.4758 3.63718C17.0453 4.69157 18.7957 5.44771 20.6392 5.86773C22.1313 6.20893 23.6647 6.33404 25.1923 6.23925V7.72967C25.1923 7.85813 25.2434 7.98134 25.3342 8.07217C25.4251 8.16301 25.5483 8.21404 25.6767 8.21404C25.8052 8.21404 25.9284 8.16301 26.0192 8.07217C26.1101 7.98134 26.1611 7.85813 26.1611 7.72967V5.71564C26.161 5.64823 26.1469 5.58158 26.1197 5.51995C26.0924 5.45831 26.0526 5.40304 26.0027 5.35768C25.9532 5.31178 25.8946 5.27693 25.8306 5.25547C25.7666 5.234 25.6988 5.22641 25.6317 5.2332C24.0355 5.38377 22.4255 5.27946 20.862 4.92417C19.0261 4.50979 17.29 3.73714 15.7533 2.65051Z" fill="white"/>
<path d="M23.7344 14.0469C23.7344 13.6615 23.5813 13.2919 23.3088 13.0194C23.0363 12.7468 22.6667 12.5938 22.2813 12.5938H18.0159C18.6833 11.7364 19.5237 10.308 19.3721 8.67952C19.2709 7.56158 18.571 6.78125 17.6715 6.78125C16.2939 6.78125 16.0575 8.12103 15.9684 8.62527C15.9009 8.97124 15.7559 9.29744 15.5444 9.57938C15.3328 9.86133 15.0601 10.0917 14.7468 10.2532C14.5046 10.4131 14.3182 10.5177 14.152 10.6093C13.8073 10.7823 13.4927 11.0097 13.2201 11.2825C12.8326 11.6635 12.5117 12.1067 12.2707 12.5938H11.1407V12.1288C11.1407 12.0003 11.0896 11.8771 10.9988 11.7862C10.9079 11.6954 10.7847 11.6444 10.6563 11.6444H7.7229C7.59444 11.6444 7.47123 11.6954 7.3804 11.7862C7.28956 11.8771 7.23853 12.0003 7.23853 12.1288V19.8303C7.23853 19.9588 7.28956 20.082 7.3804 20.1728C7.47123 20.2637 7.59444 20.3147 7.7229 20.3147H10.6563C10.7847 20.3147 10.9079 20.2637 10.9988 20.1728C11.0896 20.082 11.1407 19.9588 11.1407 19.8303V19.375H12.4238L14.7129 21.2064C14.7989 21.2751 14.9056 21.3126 15.0157 21.3125H20.8281C21.0819 21.3125 21.3312 21.246 21.5513 21.1198C21.7714 20.9935 21.9546 20.8117 22.0827 20.5927C22.2107 20.3736 22.2792 20.1248 22.2812 19.8711C22.2833 19.6173 22.2188 19.3675 22.0943 19.1464C22.4074 18.9465 22.632 18.6343 22.7221 18.274C22.8122 17.9137 22.7608 17.5325 22.5787 17.2089C22.8917 17.009 23.1164 16.6968 23.2065 16.3365C23.2965 15.9762 23.2452 15.595 23.0631 15.2714C23.2688 15.1401 23.4381 14.9591 23.5555 14.7451C23.6728 14.531 23.7343 14.2909 23.7344 14.0469ZM10.1719 19.3455H8.20728V12.6131H10.1719V19.3455ZM22.2813 14.5312H21.7969C21.6684 14.5312 21.5452 14.5823 21.4544 14.6731C21.3636 14.764 21.3125 14.8872 21.3125 15.0156C21.3125 15.1441 21.3636 15.2673 21.4544 15.3581C21.5452 15.449 21.6684 15.5 21.7969 15.5C21.9254 15.5 22.0486 15.551 22.1394 15.6419C22.2302 15.7327 22.2813 15.8559 22.2813 15.9844C22.2813 16.1128 22.2302 16.236 22.1394 16.3269C22.0486 16.4177 21.9254 16.4688 21.7969 16.4688H21.3125C21.1841 16.4688 21.0609 16.5198 20.97 16.6106C20.8792 16.7015 20.8281 16.8247 20.8281 16.9531C20.8281 17.0816 20.8792 17.2048 20.97 17.2956C21.0609 17.3865 21.1841 17.4375 21.3125 17.4375C21.441 17.4375 21.5642 17.4885 21.655 17.5794C21.7459 17.6702 21.7969 17.7934 21.7969 17.9219C21.7969 18.0503 21.7459 18.1735 21.655 18.2644C21.5642 18.3552 21.441 18.4062 21.3125 18.4062H20.8281C20.6997 18.4062 20.5765 18.4573 20.4856 18.5481C20.3948 18.639 20.3438 18.7622 20.3438 18.8906C20.3438 19.0191 20.3948 19.1423 20.4856 19.2331C20.5765 19.324 20.6997 19.375 20.8281 19.375C20.9566 19.375 21.0798 19.426 21.1707 19.5169C21.2615 19.6077 21.3125 19.7309 21.3125 19.8594C21.3125 19.9878 21.2615 20.111 21.1707 20.2019C21.0798 20.2927 20.9566 20.3438 20.8281 20.3438H15.1857L12.8965 18.5123C12.8106 18.4436 12.7038 18.4062 12.5938 18.4062H11.1407V13.5625H12.5938C12.6975 13.5618 12.7984 13.5281 12.8817 13.4663C12.9651 13.4045 13.0266 13.3177 13.0573 13.2186C13.2446 12.7444 13.534 12.3172 13.905 11.9675C14.1146 11.7595 14.3565 11.587 14.6214 11.4564C14.8064 11.3542 15.0161 11.238 15.2845 11.0593C15.7086 10.8268 16.0756 10.5028 16.3589 10.1109C16.6423 9.71899 16.8348 9.26892 16.9226 8.79334C17.0791 7.90597 17.2888 7.75 17.6715 7.75C18.0541 7.75 18.354 8.1685 18.4092 8.76719C18.6029 10.8679 16.6228 12.7003 16.6025 12.7182C16.5296 12.7839 16.4783 12.8701 16.4555 12.9656C16.4327 13.061 16.4394 13.1611 16.4748 13.2526C16.5101 13.3441 16.5724 13.4228 16.6534 13.4781C16.7344 13.5334 16.8303 13.5629 16.9284 13.5625H22.2813C22.4097 13.5625 22.5329 13.6135 22.6238 13.7044C22.7146 13.7952 22.7656 13.9184 22.7656 14.0469C22.7656 14.1753 22.7146 14.2985 22.6238 14.3894C22.5329 14.4802 22.4097 14.5312 22.2813 14.5312Z" fill="#FFCC29"/>
</g>
<defs>
<clipPath id="clip0_100_904">
<rect width="31" height="31" fill="white"/>
</clipPath>
</defs>
</svg>
