<svg width="31" height="27" viewBox="0 0 31 27" fill="none" xmlns="http://www.w3.org/2000/svg">
<path d="M29.5774 2.74511L24.1826 0.497548C23.5908 0.251062 22.9121 0.251122 22.3203 0.497609L19.7301 1.57649C19.4986 1.673 19.3891 1.9388 19.4855 2.17034C19.582 2.40187 19.8478 2.51146 20.0794 2.41495L22.6696 1.336C23.0392 1.18197 23.4635 1.18191 23.8334 1.33594L29.228 3.58338C29.7527 3.80226 30.0918 4.29444 30.0918 4.83712V24.2575C30.0918 25.0127 29.4431 25.6271 28.6459 25.6271H27.9097C27.6588 25.6271 27.4556 25.8303 27.4556 26.0812C27.4556 26.332 27.6588 26.5353 27.9097 26.5353H28.6459C29.9439 26.5353 31 25.5135 31 24.2575V4.83712C31 3.92674 30.4416 3.1056 29.5774 2.74511Z" fill="white"/>
<path d="M25.9304 25.6272H18.3003C18.6145 25.2701 18.7865 24.817 18.7865 24.3375C18.7865 23.859 18.6133 23.4205 18.3266 23.0804C18.5074 22.9882 18.6747 22.8676 18.8225 22.7199C19.1913 22.351 19.3944 21.8605 19.3944 21.3386C19.3944 20.8412 19.2072 20.3868 18.8999 20.0416C19.052 19.9554 19.1937 19.8486 19.3206 19.7216C19.6895 19.3528 19.8926 18.8623 19.8926 18.3403C19.8926 17.8443 19.7066 17.3912 19.401 17.0462C19.5557 16.9594 19.6998 16.8513 19.829 16.7224C20.1977 16.3529 20.4006 15.8625 20.4006 15.3414C20.4006 14.264 19.5244 13.3876 18.4473 13.3876H16.4111V4.83712C16.4111 4.29438 16.7502 3.80219 17.2747 3.58343L18.1006 3.23953C18.3321 3.14314 18.4417 2.87734 18.3453 2.64574C18.2488 2.41421 17.983 2.3045 17.7515 2.40107L16.9253 2.7451C16.0612 3.10554 15.5029 3.92674 15.5029 4.83712V13.3876H13.6055C14.2374 11.391 14.1836 9.3073 13.4463 6.88887C13.3342 6.52262 13.1114 6.20893 12.8017 5.9817C12.4938 5.75586 12.129 5.6364 11.7465 5.6364C11.2538 5.6364 10.7956 5.83317 10.4563 6.19046C10.1172 6.54769 9.94452 7.01535 9.97007 7.50724C10.1121 10.2377 8.85256 11.1775 7.10935 12.4784C6.53543 12.9066 5.90816 13.375 5.29168 13.9494V13.3542C5.29168 13.1034 5.08842 12.9001 4.83757 12.9001H0.454102C0.203256 12.9001 0 13.1034 0 13.3542V26.2332C0 26.484 0.203256 26.6873 0.454102 26.6873H4.8377C5.08854 26.6873 5.2918 26.484 5.2918 26.2332V25.0908C6.15429 25.1728 6.78422 25.3447 7.39622 25.8138C7.79801 26.1217 8.29329 26.2913 8.7908 26.2913H16.7994C17.1266 26.4508 17.4893 26.5353 17.857 26.5353H25.9304C26.1812 26.5353 26.3845 26.3321 26.3845 26.0812C26.3845 25.8304 26.1812 25.6272 25.9304 25.6272ZM7.94872 25.0929C7.09246 24.4368 6.17736 24.2544 5.2918 24.178V18.8756C5.2918 18.6247 5.08854 18.4215 4.8377 18.4215C4.58685 18.4215 4.38359 18.6247 4.38359 18.8756V25.7791H0.908203V13.8084H4.38359V16.897C4.38359 17.1478 4.58685 17.3511 4.8377 17.3511C5.08854 17.3511 5.2918 17.1478 5.2918 16.897V15.2395C6.05142 14.4012 6.86481 13.7942 7.65264 13.2063C9.39694 11.9048 11.0444 10.6753 10.8772 7.46013C10.8647 7.21946 10.9492 6.99065 11.1152 6.81585C11.2812 6.64093 11.5055 6.54466 11.7467 6.54466C11.9346 6.54466 12.1136 6.60321 12.2646 6.71401C12.4153 6.82457 12.5236 6.97691 12.5778 7.15425C13.3288 9.6176 13.317 11.6901 12.5408 13.6766C12.4862 13.8163 12.5042 13.974 12.5888 14.0979C12.6734 14.2219 12.8137 14.296 12.9638 14.296H18.4474C19.0237 14.296 19.4925 14.7651 19.4925 15.3416C19.4925 15.6205 19.3837 15.8831 19.1869 16.0804C18.9889 16.2779 18.7264 16.3867 18.4474 16.3867H16.582C16.3311 16.3867 16.1279 16.5899 16.1279 16.8408C16.1279 17.0916 16.3311 17.2949 16.582 17.2949H17.9394C18.5157 17.2949 18.9845 17.7639 18.9845 18.3406C18.9845 18.6199 18.8759 18.8824 18.6785 19.0797C18.4812 19.277 18.2187 19.3856 17.9394 19.3856H16.582C16.3311 19.3856 16.1279 19.5889 16.1279 19.8397C16.1279 20.0906 16.3311 20.2938 16.582 20.2938H17.4411C18.0174 20.2938 18.4862 20.7626 18.4862 21.3389C18.4862 21.6181 18.3775 21.8806 18.1802 22.078C17.9825 22.2757 17.72 22.3845 17.4411 22.3845H16.8332H16.0836C15.8328 22.3845 15.6295 22.5878 15.6295 22.8386C15.6295 23.0895 15.8328 23.2927 16.0836 23.2927H16.8332C17.4095 23.2927 17.8783 23.7615 17.8783 24.3378C17.8783 24.617 17.7695 24.8798 17.5727 25.077C17.3883 25.261 17.0969 25.3784 16.8789 25.3823C16.8638 25.3826 8.7908 25.3834 8.7908 25.3834C8.49194 25.3831 8.19284 25.2801 7.94872 25.0929Z" fill="white"/>
<path d="M24.8904 5.03887C24.8904 4.08465 24.114 3.30832 23.1598 3.30832C22.2056 3.30832 21.4293 4.08465 21.4293 5.03887C21.4293 5.99309 22.2056 6.76942 23.1598 6.76942C24.114 6.76942 24.8904 5.99309 24.8904 5.03887ZM22.3375 5.03887C22.3375 4.58543 22.7064 4.21652 23.1598 4.21652C23.6132 4.21652 23.9822 4.58543 23.9822 5.03887C23.9822 5.49231 23.6132 5.86122 23.1598 5.86122C22.7064 5.86122 22.3375 5.49237 22.3375 5.03887Z" fill="white"/>
<path d="M23.4435 20.5334H22.6291C22.2001 20.5334 21.8511 20.1844 21.8511 19.7554C21.8511 19.5045 21.6479 19.3013 21.397 19.3013C21.1462 19.3013 20.9429 19.5045 20.9429 19.7554C20.9429 20.6695 21.6741 21.4154 22.5822 21.4404V22.4454C22.5822 22.6962 22.7854 22.8995 23.0363 22.8995C23.2871 22.8995 23.4904 22.6962 23.4904 22.4454V21.4404C24.3985 21.4154 25.1297 20.6695 25.1297 19.7554V19.1267C25.1297 18.5435 24.757 18.0306 24.2023 17.8503L22.151 17.184C21.9716 17.1256 21.8511 16.9599 21.8511 16.7713V15.8712C21.8511 15.5228 22.1346 15.2393 22.4829 15.2393H23.5897C23.9381 15.2393 24.2215 15.5228 24.2215 15.8712C24.2215 16.122 24.4248 16.3253 24.6756 16.3253C24.9265 16.3253 25.1297 16.122 25.1297 15.8712C25.1297 15.022 24.4389 14.3311 23.5897 14.3311H23.4904V13.3274C23.4904 13.0765 23.2871 12.8733 23.0363 12.8733C22.7854 12.8733 22.5822 13.0765 22.5822 13.3274V14.3311H22.4829C21.6338 14.3311 20.9429 15.0219 20.9429 15.8712V16.7713C20.9429 17.3546 21.3155 17.8675 21.8703 18.0477L23.9215 18.714C24.1009 18.7723 24.2214 18.9382 24.2214 19.1267V19.7554C24.2215 20.1844 23.8725 20.5334 23.4435 20.5334Z" fill="#FFCC29"/>
</svg>
