<svg width="31" height="31" viewBox="0 0 31 31" fill="none" xmlns="http://www.w3.org/2000/svg">
<g clip-path="url(#clip0_100_898)">
<path d="M14.1471 21.646C14.3188 21.8175 14.5516 21.914 14.7945 21.914C15.0371 21.914 15.2699 21.8177 15.4416 21.646L18.7094 18.3781C19.067 18.0205 19.067 17.4411 18.7094 17.0835C18.3521 16.7261 17.7724 16.7261 17.415 17.0835L14.7945 19.704L13.5996 18.5091C13.242 18.1518 12.6626 18.1518 12.305 18.5091C11.9476 18.8665 11.9476 19.4462 12.305 19.8038L14.1471 21.646Z" fill="#FFCC29"/>
<path d="M15.5074 26.6312C19.5141 26.6312 22.7737 23.3713 22.7737 19.3646C22.7737 15.3579 19.5141 12.0983 15.5074 12.0983C11.5004 12.0983 8.24078 15.3579 8.24078 19.3646C8.24078 23.3713 11.5006 26.6312 15.5074 26.6312ZM15.5074 13.9289C18.5047 13.9289 20.9431 16.3673 20.9431 19.3646C20.9431 22.3619 18.5047 24.8006 15.5074 24.8006C12.51 24.8006 10.0714 22.3619 10.0714 19.3646C10.0714 16.3673 12.51 13.9289 15.5074 13.9289Z" fill="#FFCC29"/>
<path d="M27.6907 1.94909H26.0212V0.915299C26.0212 0.409874 25.6113 0 25.1059 0C24.6005 0 24.1906 0.409874 24.1906 0.915299V1.94909H22.3919V0.915299C22.3919 0.409874 21.9821 0 21.4764 0C20.971 0 20.5611 0.409874 20.5611 0.915299V1.94909H10.4536V0.915299C10.4536 0.409874 10.0437 0 9.53802 0C9.0326 0 8.62273 0.409874 8.62273 0.915299V1.94909H6.82406V0.915299C6.82406 0.409874 6.41418 0 5.90852 0C5.4031 0 4.99323 0.409874 4.99323 0.915299V1.94909H3.32346C1.69129 1.94909 0.363281 3.2771 0.363281 4.9095V28.0398C0.363281 29.672 1.69129 31 3.32346 31H27.6907C29.3231 31 30.6509 29.672 30.6509 28.0398V4.9095C30.6509 3.2771 29.3229 1.94909 27.6907 1.94909ZM28.8201 28.0398C28.8201 28.6626 28.3135 29.1694 27.6907 29.1694H3.32346C2.70072 29.1694 2.19388 28.6626 2.19388 28.0398V9.56026H28.8201V28.0398ZM2.19388 4.9095C2.19388 4.28653 2.70072 3.77992 3.32346 3.77992H4.99323V4.81371C4.99323 5.31914 5.4031 5.72901 5.90876 5.72901C6.41418 5.72901 6.82406 5.31914 6.82406 4.81371V3.77992H8.62273V4.81371C8.62273 5.31914 9.0326 5.72901 9.53826 5.72901C10.0437 5.72901 10.4536 5.31914 10.4536 4.81371V3.77992H20.5611V4.81371C20.5611 5.31914 20.971 5.72901 21.4766 5.72901C21.9821 5.72901 22.3919 5.31914 22.3919 4.81371V3.77992H24.1906V4.81371C24.1906 5.31914 24.6005 5.72901 25.1059 5.72901C25.6116 5.72901 26.0214 5.31914 26.0214 4.81371V3.77992H27.6907C28.3135 3.77992 28.8203 4.28653 28.8203 4.9095V7.72942H2.19388V4.9095Z" fill="white"/>
</g>
<defs>
<clipPath id="clip0_100_898">
<rect width="31" height="31" fill="white"/>
</clipPath>
</defs>
</svg>
