<svg width="50" height="50" fill="none" xmlns="http://www.w3.org/2000/svg"><g clip-path="url(#clip0_142_393)"><path d="M32.813 32.813a3.125 3.125 0 00-3.126-3.126H19.633l.68-5.375a.386.386 0 000-.093c0-4.328-3.063-5.469-4.688-5.469a.782.782 0 00-.781.57l-3.125 10.852a5.993 5.993 0 01-2.344 2.476v-.617a.781.781 0 00-.781-.781H.78a.781.781 0 00-.781.781V49.22a.781.781 0 00.782.78h7.813a.781.781 0 00.781-.781v-.524L13.852 50c.07.012.14.012.21 0h13.282a3.125 3.125 0 002.343-5.14 3.123 3.123 0 00.782-4.688 3.125 3.125 0 00.781-4.688 3.125 3.125 0 001.563-2.672zm-25 15.624h-6.25V32.813h6.25v15.624zm19.53 0h-13.17L9.375 47.07V34.281c2.344-.539 3.758-3.328 3.82-3.46a1.04 1.04 0 00.055-.141l2.945-10.297c.914.203 2.54.96 2.555 3.789l-.781 6.203a.78.78 0 00.781.875h10.938a1.563 1.563 0 010 3.125H25.78a.781.781 0 000 1.563h3.125a1.563 1.563 0 010 3.124H25a.78.78 0 100 1.563h3.125a1.563 1.563 0 010 3.125h-3.906a.78.78 0 100 1.563h3.125a1.562 1.562 0 010 3.124z" fill="#39373A"/><path d="M10.156 11.719h.781v.781a.781.781 0 101.563 0v-.781h.781a.781.781 0 100-1.563H12.5v-.781a.781.781 0 10-1.563 0v.781h-.78a.781.781 0 000 1.563zm32.032 27.344h-.782v-.782a.781.781 0 10-1.562 0v.782h-.782a.781.781 0 100 1.562h.782v.781a.781.781 0 101.562 0v-.781h.782a.781.781 0 100-1.563z" fill="#FFCC29"/><path d="M32.813 0a17.188 17.188 0 00-17.188 17.188.781.781 0 101.563 0 15.626 15.626 0 1118.6 15.342.785.785 0 00.148 1.563h.149A17.187 17.187 0 0032.813 0z" fill="#39373A"/><path d="M39.844 20.313a6.25 6.25 0 00-6.25-6.25H32.03a1.562 1.562 0 110-3.126h5.47a2.344 2.344 0 100-4.687h-2.344V3.906a.781.781 0 00-.781-.781H31.25a.781.781 0 00-.781.781v2.547A6.25 6.25 0 0032.03 18.75h1.563a1.562 1.562 0 110 3.125h-5.469a2.344 2.344 0 100 4.688h2.344v2.343a.781.781 0 00.781.782h3.125a.781.781 0 00.781-.782V26.36a6.25 6.25 0 004.688-6.047zm-5.578 4.632a.78.78 0 00-.672.782v2.398H32.03v-2.344a.781.781 0 00-.78-.781h-3.125a.781.781 0 110-1.563h5.469a3.125 3.125 0 100-6.25H32.03a4.688 4.688 0 01-.672-9.32.781.781 0 00.672-.781V4.687h1.563v2.344a.781.781 0 00.781.782H37.5a.781.781 0 110 1.562h-5.469a3.125 3.125 0 000 6.25h1.563a4.688 4.688 0 01.672 9.32z" fill="#FFCC29"/></g><defs><clipPath id="clip0_142_393"><path fill="#fff" d="M0 0h50v50H0z"/></clipPath></defs></svg>