<svg width="47" height="47" fill="none" xmlns="http://www.w3.org/2000/svg"><g clip-path="url(#clip0_142_435)"><path d="M22.707 17.921a.695.695 0 001.048-.119l4.582-6.916a.689.689 0 00-1.148-.76l-4.129 6.232-2.294-2.18a.689.689 0 00-.949 1l2.89 2.743z" fill="#FFCC29"/><path d="M23.177 28.422c.131.06.277.092.422.092h.005a.98.98 0 00.427-.098c10.47-4.978 12.244-15.72 12.538-18.895.067-.724-.34-1.4-1.015-1.679a6.017 6.017 0 01-3.698-5.05 1.36 1.36 0 00-1.349-1.231H30.5l-14.105.082A1.349 1.349 0 0015.051 2.9a6.018 6.018 0 01-3.643 5.086 1.64 1.64 0 00-.99 1.689c.332 3.17 2.232 13.891 12.759 18.747zM11.949 9.252a7.389 7.389 0 004.474-6.232l14.064-.083a7.39 7.39 0 004.539 6.177c.114.047.183.16.172.28-.276 2.975-1.928 13.004-11.602 17.704-9.73-4.585-11.497-14.595-11.809-17.567a.271.271 0 01.162-.279z" fill="#FFCC29"/><path d="M13.668 13.069c.084.306.472.587.846.484a.69.69 0 00.483-.845 22.71 22.71 0 01-.438-1.95 9.682 9.682 0 003.94-5.163l9.942-.058a9.682 9.682 0 004 5.115 22.507 22.507 0 01-.416 1.957.689.689 0 101.333.346c.197-.762.358-1.535.477-2.298a1.053 1.053 0 00-.497-1.068 8.309 8.309 0 01-3.654-4.684 1.065 1.065 0 00-1.011-.747h-.007l-10.41.061a1.065 1.065 0 00-1.009.76 8.31 8.31 0 01-3.599 4.726 1.053 1.053 0 00-.483 1.073c.128.762.297 1.532.503 2.291zm18.298 2.041a.688.688 0 00-.899.374c-1.59 3.856-4.11 6.788-7.488 8.717-3.405-1.892-5.96-4.799-7.596-8.643a.689.689 0 00-1.267.54c1.785 4.194 4.598 7.356 8.36 9.398a1.054 1.054 0 001.021-.006c3.734-2.083 6.507-5.273 8.243-9.481a.688.688 0 00-.374-.899z" fill="#FFCC29"/><path d="M4.417 36.79a2.439 2.439 0 00-2.435 2.435 2.439 2.439 0 002.435 2.436 2.439 2.439 0 002.437-2.436 2.438 2.438 0 00-2.437-2.435zm0 3.494a1.06 1.06 0 010-2.117c.584 0 1.06.475 1.06 1.058a1.06 1.06 0 01-1.06 1.06z" fill="#39373A"/><path d="M46.506 30.05a2.868 2.868 0 00-3.96-.767l-9 6.024-1.922-.108-.05-.492a4.178 4.178 0 00-3.617-3.737l-9.698-.85c-.328-.051-1.378-.353-4.264-2.008a10.71 10.71 0 00-4.907-1.411v-1.802A1.64 1.64 0 007.45 23.26H1.64c-.905 0-1.64.736-1.64 1.64v17.739c0 .903.735 1.639 1.64 1.639h5.81c.903 0 1.638-.736 1.638-1.64v-.488l8.478 3.21c.018.008.707.265 1.973.146a652297.23 652297.23 0 0014.096-2.033 6.926 6.926 0 003.308-1.492L46.04 33.8a2.868 2.868 0 00.465-3.75zm-1.383 2.722l-9.088 8.174a5.55 5.55 0 01-2.612 1.167l-14.076 2.029a.335.335 0 00-.019.003c-.42.066-.86.038-1.303-.083l-8.937-3.384v-7.863a.688.688 0 10-1.377 0v9.824a.262.262 0 01-.262.262H1.64a.262.262 0 01-.262-.262v-17.74c0-.144.118-.262.262-.262h5.81c.145 0 .262.118.262.262v4.806a.688.688 0 101.377 0v-1.626a9.324 9.324 0 014.222 1.228c3.48 1.996 4.453 2.134 4.772 2.18l.036.003 9.7.85a2.805 2.805 0 012.387 2.503l.036.367-12.985.802-.026-.002a1.569 1.569 0 01-1.07-.56.688.688 0 10-1.058.881 2.981 2.981 0 002.006 1.05c.425.045 13.89-.838 13.89-.838l2.7.152a.686.686 0 00.421-.116l9.194-6.152a1.488 1.488 0 012.055.397 1.49 1.49 0 01-.245 1.948z" fill="#39373A"/></g><defs><clipPath id="clip0_142_435"><path fill="#fff" d="M0 0h47v47H0z"/></clipPath></defs></svg>