<svg width="55" height="55" fill="none" xmlns="http://www.w3.org/2000/svg"><path d="M47.266 6.875h-3.438V5.156a3.437 3.437 0 10-6.875 0v1.719h-6.875V5.156a3.437 3.437 0 10-6.875 0v1.719h-6.875V5.156a3.437 3.437 0 10-6.875 0v1.719H6.016a4.302 4.302 0 00-4.297 4.297v36.094a4.302 4.302 0 004.297 4.297h25.78a.859.859 0 100-1.72H6.017a2.578 2.578 0 01-2.579-2.577v-28.36h46.407v12.032a.86.86 0 101.718 0V11.172a4.302 4.302 0 00-4.296-4.297zm-8.594-1.719a1.719 1.719 0 013.437 0v5.157a1.719 1.719 0 01-3.437 0V5.155zm-13.75 0a1.719 1.719 0 013.437 0v5.157a1.719 1.719 0 01-3.437 0V5.155zm-13.75 0a1.719 1.719 0 013.437 0v5.157a1.719 1.719 0 01-3.437 0V5.155zM3.437 17.188v-6.016a2.578 2.578 0 012.579-2.578h3.437v1.719a3.438 3.438 0 006.875 0v-1.72h6.875v1.72a3.438 3.438 0 006.875 0v-1.72h6.875v1.72a3.438 3.438 0 006.875 0v-1.72h3.438a2.578 2.578 0 012.578 2.579v6.015H3.437z" fill="#39373A"/><path d="M52.422 35.234a.859.859 0 100-1.718h-3.438a.859.859 0 00-.859.859v3.437a.86.86 0 101.719 0V36.69a9.432 9.432 0 11-4.436-3.437.86.86 0 10.601-1.612 11.187 11.187 0 104.896 3.594h1.517z" fill="#FFCC29"/><path d="M42.969 39.69v-4.456a.86.86 0 10-1.719 0v4.455a2.58 2.58 0 00-1.56 1.561h-2.737a.859.859 0 100 1.719h2.736a2.572 2.572 0 103.28-3.28zm-.86 3.279a.86.86 0 110-1.72.86.86 0 010 1.72zM23.203 28.36h-3.437a1.719 1.719 0 01-1.72-1.72v-2.578a1.719 1.719 0 011.72-1.718h3.437a1.719 1.719 0 011.719 1.718v2.579a1.719 1.719 0 01-1.719 1.718zm-3.437-4.297v2.578h3.437v-2.578h-3.437zm13.75 4.297h-3.438a1.719 1.719 0 01-1.719-1.72v-2.578a1.719 1.719 0 011.72-1.718h3.437a1.719 1.719 0 011.718 1.718v2.579a1.719 1.719 0 01-1.718 1.718zm-3.438-4.297v2.578h3.438v-2.578h-3.438zM12.89 28.36H9.454a1.719 1.719 0 01-1.719-1.72v-2.578a1.719 1.719 0 011.72-1.718h3.437a1.719 1.719 0 011.718 1.718v2.579a1.719 1.719 0 01-1.718 1.718zm-3.437-4.297v2.578h3.438v-2.578H9.453zm34.375 4.297h-3.437a1.719 1.719 0 01-1.72-1.72v-2.578a1.719 1.719 0 011.72-1.718h3.437a1.719 1.719 0 011.719 1.718v2.579a1.719 1.719 0 01-1.719 1.718zm-3.437-4.297v2.578h3.437v-2.578h-3.437zm-17.188 13.75h-3.437a1.719 1.719 0 01-1.72-1.72v-2.577a1.719 1.719 0 011.72-1.72h3.437a1.719 1.719 0 011.719 1.72v2.578a1.719 1.719 0 01-1.719 1.718zm-3.437-4.297v2.578h3.437v-2.578h-3.437zm10.312 4.297a1.719 1.719 0 01-1.719-1.72v-2.577a1.719 1.719 0 011.72-1.72h2.577a.859.859 0 110 1.72h-2.578v2.578a.86.86 0 110 1.718zm-17.188 0H9.454a1.719 1.719 0 01-1.719-1.72v-2.577a1.719 1.719 0 011.72-1.72h3.437a1.719 1.719 0 011.718 1.72v2.578a1.719 1.719 0 01-1.718 1.718zm-3.437-4.297v2.578h3.438v-2.578H9.453zm13.75 13.75h-3.437a1.719 1.719 0 01-1.72-1.72V42.97a1.719 1.719 0 011.72-1.719h3.437a1.719 1.719 0 011.719 1.719v2.578a1.719 1.719 0 01-1.719 1.719zm-3.437-4.297v2.578h3.437v-2.578h-3.437zm-6.876 4.297H9.454a1.719 1.719 0 01-1.719-1.72V42.97a1.719 1.719 0 011.72-1.719h3.437a1.719 1.719 0 011.718 1.719v2.578a1.719 1.719 0 01-1.718 1.719zm-3.437-4.297v2.578h3.438v-2.578H9.453z" fill="#FFCC29"/></svg>