<svg width="64" height="64" fill="none" xmlns="http://www.w3.org/2000/svg"><path d="M60.42 33.9a4.047 4.047 0 00-5.47-1.47l-10.04 5.8A3.916 3.916 0 0043.66 36a4.04 4.04 0 00-2.67-1h-9.16a1.001 1.001 0 01-.71-.3l-.24-.24A5.03 5.03 0 0027.35 33h-4.03a8.948 8.948 0 00-6.37 2.64l-3.94 3.95-.3-.3a1 1 0 00-1.42.01l-2.28 2.29-.3-.3a1.008 1.008 0 00-.76-.29.972.972 0 00-.72.36l-5 6A1 1 0 002 48v13a1 1 0 001 1h16c.265-.002.52-.106.71-.29l4-4a1.009 1.009 0 000-1.42l-.3-.3 2.29-2.28a1 1 0 00.01-1.42l-.29-.28 2.12-2.13a2.954 2.954 0 012.12-.88h11.27a4.901 4.901 0 002.5-.67l15.52-8.96a4.019 4.019 0 001.47-5.47zM18.59 60H4V48.36l4.07-4.88L21.59 57l-3 3zm3.4-5.42L10.42 43.01 12 41.42l11.3 11.3h.01l.27.28-1.59 1.58zm35.96-16.95L42.42 46.6a2.943 2.943 0 01-1.49.4H29.66a4.945 4.945 0 00-3.54 1.47l-2.11 2.12-9.59-9.58 3.95-3.96A6.94 6.94 0 0123.32 35h4.03a2.973 2.973 0 012.11.88l.24.24a3 3 0 002.13.88h9.16a2.02 2.02 0 011.34.5c.38.327.618.79.66 1.29.037.31-.008.623-.13.91a1.87 1.87 0 01-.45.71A1.983 1.983 0 0141 41h-6.58a1 1 0 100 2H41a4 4 0 002.83-1.17c.321-.327.585-.706.78-1.12l11.34-6.54a1.99 1.99 0 011.91-.04c.347.165.633.434.82.77.178.303.272.648.27 1a1.97 1.97 0 01-1 1.73z" fill="#39373A"/><path d="M53 2a8.991 8.991 0 00-8.47 6H23a3.01 3.01 0 00-3 3v18a3.01 3.01 0 003 3h30a3.01 3.01 0 003-3v-9.53A8.992 8.992 0 0053 2zm-31 9a1 1 0 011-1h21.06a8.36 8.36 0 00-.06 1 8.805 8.805 0 00.53 3H22v-3zm0 5h23.52a8.976 8.976 0 001.84 2H22v-2zm32 13a1 1 0 01-1 1H23a1 1 0 01-1-1v-9h31c.334 0 .668-.02 1-.06V29zm-1-11a7 7 0 117-7 7.008 7.008 0 01-7 7z" fill="#FFCC29"/><path d="M50 10a2 2 0 100-4 2 2 0 000 4zm6 6a2 2 0 100-4 2 2 0 000 4zm-7.707-.293a1 1 0 001.414 0l8-8a1.002 1.002 0 00-.316-1.645 1 1 0 00-1.098.231l-8 8a1 1 0 000 1.414zM37 24H27a1 1 0 000 2h10a1 1 0 000-2zm12 2h-6a1 1 0 010-2h6a1 1 0 010 2z" fill="#FFCC29"/></svg>