<svg width="31" height="31" fill="none" xmlns="http://www.w3.org/2000/svg"><g clip-path="url(#clip0_100_898)"><path d="M14.147 21.646a.916.916 0 001.295 0l3.267-3.268a.915.915 0 10-1.294-1.294l-2.62 2.62-1.195-1.195a.916.916 0 00-1.295 1.295l1.842 1.842z" fill="#FFCC29"/><path d="M15.507 26.631c4.007 0 7.267-3.26 7.267-7.266 0-4.007-3.26-7.267-7.267-7.267-4.007 0-7.266 3.26-7.266 7.267 0 4.006 3.26 7.266 7.266 7.266zm0-12.702a5.442 5.442 0 015.436 5.436 5.442 5.442 0 01-5.436 5.436 5.442 5.442 0 01-5.436-5.436 5.442 5.442 0 015.436-5.436z" fill="#FFCC29"/><path d="M27.69 1.95h-1.669V.914a.915.915 0 00-1.83 0V1.95h-1.8V.915a.915.915 0 00-1.83 0V1.95H10.454V.915a.915.915 0 00-1.831 0V1.95H6.824V.915a.915.915 0 00-1.83 0V1.95h-1.67a2.964 2.964 0 00-2.96 2.96v23.13A2.964 2.964 0 003.323 31H27.69a2.964 2.964 0 002.96-2.96V4.91a2.964 2.964 0 00-2.96-2.96zm1.13 26.09a1.13 1.13 0 01-1.13 1.13H3.324c-.622 0-1.13-.507-1.13-1.13V9.56H28.82v18.48zM2.194 4.91c0-.623.507-1.13 1.13-1.13h1.67v1.034a.915.915 0 001.83 0V3.78h1.799v1.034a.915.915 0 001.83 0V3.78h10.108v1.034a.915.915 0 001.83 0V3.78h1.8v1.034a.915.915 0 001.83 0V3.78h1.67c.623 0 1.13.507 1.13 1.13v2.82H2.193V4.91z" fill="#fff"/></g><defs><clipPath id="clip0_100_898"><path fill="#fff" d="M0 0h31v31H0z"/></clipPath></defs></svg>