<svg width="31" height="27" fill="none" xmlns="http://www.w3.org/2000/svg"><path d="M29.577 2.745L24.183.498a2.437 2.437 0 00-1.863 0l-2.59 1.078a.454.454 0 00.35.839l2.59-1.079c.37-.154.793-.154 1.163 0l5.395 2.247c.525.22.864.711.864 1.254v19.42c0 .756-.649 1.37-1.446 1.37h-.736a.454.454 0 100 .908h.736c1.298 0 2.354-1.021 2.354-2.277V4.837c0-.911-.558-1.732-1.423-2.093zM25.93 25.627H18.3c.314-.357.486-.81.486-1.29 0-.478-.173-.916-.46-1.257a1.96 1.96 0 001.068-1.741c0-.498-.187-.952-.494-1.297a1.96 1.96 0 00.993-1.702c0-.496-.186-.949-.492-1.294a1.943 1.943 0 001-1.705 1.956 1.956 0 00-1.954-1.953h-2.036v-8.55c0-.544.34-1.036.864-1.255l.826-.343a.454.454 0 00-.35-.839l-.826.344c-.864.36-1.422 1.182-1.422 2.092v8.55h-1.898c.632-1.996.579-4.08-.159-6.498a1.772 1.772 0 00-1.7-1.252c-.492 0-.95.196-1.29.553a1.766 1.766 0 00-.486 1.317c.142 2.73-1.117 3.67-2.86 4.971-.575.429-1.202.897-1.818 1.471v-.595a.454.454 0 00-.454-.454H.454a.454.454 0 00-.454.454v12.88c0 .25.203.453.454.453h4.384c.25 0 .454-.203.454-.454v-1.142c.862.082 1.492.254 2.104.723.402.308.897.477 1.395.477h8.008c.328.16.69.244 1.058.244h8.073a.454.454 0 100-.908zm-17.98-.534c-.857-.656-1.772-.839-2.657-.915v-5.302a.454.454 0 10-.908 0v6.903H.908V13.81h3.476v3.088a.454.454 0 10.908 0V15.24c.76-.839 1.573-1.446 2.36-2.034 1.745-1.301 3.392-2.53 3.225-5.746a.862.862 0 01.238-.644.87.87 0 011.463.338c.75 2.464.739 4.536-.037 6.523a.454.454 0 00.423.619h5.483a1.047 1.047 0 010 2.09h-1.865a.454.454 0 100 .909h1.357a1.047 1.047 0 010 2.09h-1.357a.454.454 0 100 .909h.86a1.046 1.046 0 010 2.09h-1.359a.454.454 0 100 .909h.75a1.046 1.046 0 01.74 1.784 1.105 1.105 0 01-.694.305l-8.088.001c-.3 0-.598-.103-.842-.29z" fill="#fff"/><path d="M24.89 5.039c0-.954-.776-1.73-1.73-1.73s-1.73.776-1.73 1.73.776 1.73 1.73 1.73 1.73-.776 1.73-1.73zm-2.553 0a.823.823 0 011.645 0 .823.823 0 01-1.645 0z" fill="#fff"/><path d="M23.444 20.533h-.815a.779.779 0 01-.778-.778.454.454 0 10-.908 0c0 .915.731 1.66 1.64 1.685v1.005a.454.454 0 10.907 0V21.44a1.688 1.688 0 001.64-1.685v-.628a1.34 1.34 0 00-.928-1.277l-2.051-.666a.433.433 0 01-.3-.413v-.9c0-.348.284-.632.632-.632h1.107c.348 0 .631.284.631.632a.454.454 0 10.909 0c0-.849-.691-1.54-1.54-1.54h-.1v-1.004a.454.454 0 10-.908 0v1.004h-.1c-.848 0-1.54.69-1.54 1.54v.9c0 .584.373 1.096.928 1.277l2.052.666c.179.058.3.224.3.413v.628a.779.779 0 01-.779.778z" fill="#FFCC29"/></svg>