<svg width="31" height="31" fill="none" xmlns="http://www.w3.org/2000/svg"><g clip-path="url(#clip0_100_904)"><path d="M27.896 3.016a.484.484 0 00-.432-.072 12.982 12.982 0 01-6.167.094A11.34 11.34 0 0115.809.16a.533.533 0 00-.366-.16.484.484 0 00-.362.17c-.018.02-1.778 2.029-5.377 2.867-2.034.465-4.15.433-6.168-.093a.484.484 0 00-.63.462V20.16a7.035 7.035 0 003.762 6.208l8.552 4.574a.484.484 0 00.455 0l8.656-4.574a7.036 7.036 0 003.763-6.208V3.406a.486.486 0 00-.198-.39zm-.771 17.145a6.068 6.068 0 01-3.245 5.353l-8.428 4.453-8.327-4.452a6.069 6.069 0 01-3.25-5.354V4.029c1.996.422 4.06.405 6.048-.049a12.1 12.1 0 005.533-2.812 12.732 12.732 0 005.62 2.813c1.988.454 4.053.47 6.049.048V20.16z" fill="#fff"/><path d="M15.753 2.65a.484.484 0 00-.57.004 13.715 13.715 0 01-5.038 2.27c-1.564.356-3.174.46-4.77.31a.48.48 0 00-.37.124.484.484 0 00-.161.358V20.16a5.105 5.105 0 002.737 4.5l7.645 4.088a.48.48 0 00.455 0l7.74-4.09a5.102 5.102 0 002.735-4.498V9.717a.484.484 0 10-.968 0v10.444a4.135 4.135 0 01-2.22 3.643l-7.513 3.969-7.418-3.967a4.138 4.138 0 01-2.225-3.645V6.239c1.528.095 3.062-.03 4.554-.371a14.822 14.822 0 005.11-2.23 15.39 15.39 0 005.163 2.23 16.02 16.02 0 004.553.371v1.49a.485.485 0 00.97 0V5.717a.486.486 0 00-.53-.483c-1.597.15-3.207.046-4.77-.309a14.303 14.303 0 01-5.109-2.273z" fill="#fff"/><path d="M23.734 14.047a1.453 1.453 0 00-1.453-1.453h-4.265c.667-.858 1.508-2.286 1.356-3.914-.101-1.118-.801-1.899-1.7-1.899-1.378 0-1.614 1.34-1.704 1.844a2.335 2.335 0 01-1.221 1.628c-.242.16-.429.265-.595.356-.345.173-.66.4-.932.674a4.864 4.864 0 00-.95 1.31h-1.13v-.464a.485.485 0 00-.484-.485H7.723a.484.484 0 00-.484.485v7.701a.484.484 0 00.484.485h2.933a.484.484 0 00.485-.485v-.455h1.283l2.289 1.831a.484.484 0 00.303.107h5.812a1.454 1.454 0 001.266-2.167 1.453 1.453 0 00.485-1.937 1.454 1.454 0 00.484-1.938 1.454 1.454 0 00.671-1.224zm-13.562 5.299H8.207v-6.733h1.965v6.733zm12.11-4.815h-.485a.484.484 0 000 .969.484.484 0 110 .969h-.485a.485.485 0 000 .968.484.484 0 110 .97h-.484a.485.485 0 000 .968.484.484 0 110 .969h-5.642l-2.29-1.832a.485.485 0 00-.302-.106H11.14v-4.843h1.453a.489.489 0 00.463-.344 3.48 3.48 0 01.848-1.252c.21-.208.452-.38.716-.51.185-.103.395-.219.663-.398a3.259 3.259 0 001.639-2.266c.156-.887.366-1.043.749-1.043.382 0 .682.418.737 1.017.194 2.1-1.786 3.933-1.806 3.951a.484.484 0 00.325.845h5.353a.484.484 0 010 .968z" fill="#FFCC29"/></g><defs><clipPath id="clip0_100_904"><path fill="#fff" d="M0 0h31v31H0z"/></clipPath></defs></svg>