<svg width="31" height="31" fill="none" xmlns="http://www.w3.org/2000/svg"><g clip-path="url(#clip0_1268_6)"><path d="M8.76 12.13H6.066a.674.674 0 00-.674.674v5.392a.674.674 0 001.348 0v-4.718h2.022a.674.674 0 000-1.348z" fill="#FFCC29"/><path d="M7.413 14.826H6.065a.674.674 0 000 1.348h1.348a.674.674 0 000-1.348z" fill="#FFCC29"/><path d="M15.5 0C6.953 0 0 6.953 0 15.5S6.953 31 15.5 31 31 24.047 31 15.5 24.047 0 15.5 0zm0 29.652c-7.804 0-14.152-6.348-14.152-14.152 0-7.804 6.348-14.152 14.152-14.152 7.804 0 14.152 6.348 14.152 14.152 0 7.804-6.348 14.152-14.152 14.152z" fill="#fff"/><path d="M24.435 8.339A11.406 11.406 0 0015.5 4.043 11.407 11.407 0 006.565 8.34a.673.673 0 101.05.844A10.066 10.066 0 0115.5 5.39c3.077 0 5.95 1.382 7.883 3.792a.674.674 0 101.052-.844zm-.654 14.085a.674.674 0 00-.952.025c-1.934 2.037-4.536 3.16-7.329 3.16s-5.395-1.123-7.328-3.16a.672.672 0 00-.952-.025.672.672 0 00-.025.953c2.19 2.309 5.139 3.58 8.305 3.58 3.166 0 6.115-1.271 8.307-3.58a.673.673 0 00-.026-.953z" fill="#fff"/><path d="M13.066 16.156a2.024 2.024 0 001.76-2.004 2.024 2.024 0 00-2.022-2.022h-1.348a.674.674 0 00-.673.674v5.392a.674.674 0 001.347 0v-1.07l1.545 1.547a.677.677 0 00.953-.001.674.674 0 000-.954l-1.562-1.562zm-.936-1.33v-1.348h.674a.675.675 0 010 1.348h-.674zm7.413 2.696h-2.021v-4.044h2.021a.674.674 0 000-1.348h-2.695a.674.674 0 00-.674.674v5.392c0 .372.302.674.674.674h2.695a.674.674 0 000-1.348z" fill="#FFCC29"/><path d="M18.196 14.826h-1.348a.674.674 0 000 1.348h1.348a.674.674 0 000-1.348zm6.739 2.696h-2.022v-4.044h2.022a.674.674 0 000-1.348h-2.696a.674.674 0 00-.674.674v5.392c0 .372.302.674.674.674h2.696a.674.674 0 000-1.348z" fill="#FFCC29"/><path d="M23.587 14.826h-1.348a.674.674 0 000 1.348h1.348a.674.674 0 000-1.348z" fill="#FFCC29"/></g><defs><clipPath id="clip0_1268_6"><path fill="#fff" d="M0 0h31v31H0z"/></clipPath></defs></svg>