<svg  viewBox="0 0 33 32" fill="none" xmlns="http://www.w3.org/2000/svg">
<symbol id="Lin">
<circle cx="16.3947" cy="15.6579" r="15.6579" fill="#FFCC29"/>
<g clip-path="url(#clip0_100_2244)">
<path d="M12.8856 13.421H9.6842V23.2631H12.8856V13.421Z" fill="#39373A"/>
<path d="M21.6056 13.5364C21.5716 13.5257 21.5394 13.5141 21.5036 13.5042C21.4607 13.4944 21.4177 13.4863 21.3739 13.4792C21.2039 13.4452 21.0178 13.421 20.7995 13.421C18.933 13.421 17.7493 14.7783 17.3592 15.3027V13.421H14.1578V23.2631H17.3592V17.8947C17.3592 17.8947 19.7786 14.5251 20.7995 17C20.7995 19.2091 20.7995 23.2631 20.7995 23.2631H23.9999V16.6215C23.9999 15.1344 22.9808 13.8952 21.6056 13.5364Z" fill="#39373A"/>
<path d="M11.25 12.079C12.1148 12.079 12.8158 11.3779 12.8158 10.5132C12.8158 9.64842 12.1148 8.94739 11.25 8.94739C10.3852 8.94739 9.6842 9.64842 9.6842 10.5132C9.6842 11.3779 10.3852 12.079 11.25 12.079Z" fill="#39373A"/>
</g>
<defs>
<clipPath id="clip0_100_2244">
<rect width="14.3158" height="14.3158" fill="white" transform="translate(9.6842 8.94739)"/>
</clipPath>
</defs>
</svg>
