<svg  viewBox="0 0 32 32" fill="none" xmlns="http://www.w3.org/2000/svg">
<symbol id="Tel">
<circle cx="15.8685" cy="15.6579" r="15.6579" fill="#FFCC29"/>
<path d="M17.7473 8.94727H14.8842C12.1284 8.94727 9.87366 11.202 9.87366 13.9578V16.1052C9.87366 18.0378 11.001 19.8094 12.7368 20.6325V23.0304C12.7368 23.2452 13.0052 23.3525 13.1484 23.1915L15.2242 21.1157H17.7473C20.5031 21.1157 22.7579 18.8609 22.7579 16.1052V13.9578C22.7579 11.202 20.5031 8.94727 17.7473 8.94727ZM19.6263 18.342L18.8926 19.0578C18.1231 19.8094 16.1368 18.9504 14.3831 17.1609C12.6294 15.3715 11.86 13.3673 12.5937 12.6157L13.3094 11.8999C13.5779 11.6315 14.0252 11.6494 14.3294 11.9178L15.3673 12.9915C15.7431 13.3673 15.5821 14.0115 15.0989 14.1546C14.7589 14.262 14.5263 14.6378 14.6337 14.9778C14.8126 15.7652 15.8147 16.7673 16.5663 16.9641C16.9063 17.0357 17.2821 16.8567 17.4073 16.5167C17.5684 16.0336 18.2126 15.8904 18.5705 16.2662L19.6084 17.3399C19.8947 17.5904 19.8947 18.0378 19.6263 18.342ZM16.96 12.3473C16.8884 12.3473 16.8168 12.3473 16.7452 12.3652C16.62 12.3831 16.4947 12.2757 16.4768 12.1504C16.4589 12.0252 16.5663 11.8999 16.6915 11.882C16.781 11.8641 16.8705 11.8641 16.96 11.8641C18.2663 11.8641 19.34 12.9378 19.34 14.2441C19.34 14.3336 19.34 14.4231 19.3221 14.5125C19.3042 14.6378 19.1789 14.7452 19.0536 14.7273C18.9284 14.7094 18.821 14.5841 18.8389 14.4588C18.8389 14.3873 18.8568 14.3157 18.8568 14.2441C18.8747 13.2062 18.0158 12.3473 16.96 12.3473ZM18.3915 14.262C18.3915 14.3873 18.2842 14.4946 18.1589 14.4946C18.0336 14.4946 17.9263 14.3873 17.9263 14.262C17.9263 13.7431 17.4968 13.3136 16.9779 13.3136C16.8526 13.3136 16.7452 13.2062 16.7452 13.0809C16.7452 12.9557 16.8526 12.8483 16.9779 12.8483C17.7473 12.8304 18.3915 13.4746 18.3915 14.262ZM20.2168 15.0315C20.181 15.1567 20.0558 15.2462 19.9126 15.2104C19.7873 15.1746 19.7158 15.0494 19.7515 14.9241C19.8052 14.7094 19.8231 14.4946 19.8231 14.262C19.8231 12.6873 18.5347 11.3988 16.96 11.3988C16.8884 11.3988 16.8168 11.3988 16.7452 11.3988C16.62 11.3988 16.4947 11.3094 16.4947 11.1841C16.4947 11.0588 16.5842 10.9336 16.7094 10.9336C16.7989 10.9336 16.8884 10.9157 16.96 10.9157C18.8031 10.9157 20.3063 12.4188 20.3063 14.262C20.3063 14.5125 20.2705 14.7809 20.2168 15.0315Z" fill="#39373A"/>
</svg>
