<svg  viewBox="0 0 250 87" fill="none" xmlns="http://www.w3.org/2000/svg">
<symbol id="log">
<g clip-path="url(#clip0_142_8)">
<path fill-rule="evenodd" clip-rule="evenodd" d="M0.0343018 82.7725C0.0343018 82.2771 0.343368 81.874 0.732562 81.874H68.1319C68.5211 81.874 68.8301 82.2771 68.8301 82.7725C68.8301 83.2678 68.5211 83.6709 68.1319 83.6709H0.732562C0.343368 83.6709 0.0343018 83.2678 0.0343018 82.7725Z" fill="#FFCC29"/>
<path fill-rule="evenodd" clip-rule="evenodd" d="M181.17 82.7725C181.17 82.2771 181.479 81.874 181.868 81.874H249.267C249.657 81.874 249.966 82.2771 249.966 82.7725C249.966 83.2678 249.657 83.6709 249.267 83.6709H181.868C181.479 83.6709 181.17 83.2678 181.17 82.7725Z" fill="#FFCC29"/>
<path d="M105.243 41.2824V60.9907C105.243 64.5614 105.655 66.2777 108.001 67.4756H88.0151C90.3617 66.2892 90.7738 64.5729 90.7738 60.9907L90.7052 39.5085C90.6823 31.8487 82.8984 36.3755 82.8984 42.1232V60.9907C82.8984 64.5614 83.3105 66.2777 85.6571 67.4756H65.6708C68.0174 66.2892 68.4295 64.5729 68.4295 60.9907L68.3608 39.5085C68.3379 31.2958 60.0847 37.0551 60.0847 43.1484V61.0021C60.0847 64.5729 60.4968 66.2892 62.8434 67.4871H43.1891C45.5357 66.3007 45.9478 64.5844 45.9478 61.0021V38.1378C45.9478 34.6016 45.5357 32.8854 43.2578 31.699H59.7871V37.2279C62.6259 28.347 78.1823 28.9114 82.0284 37.2394C87.5801 26.0663 105.243 30.4434 105.243 41.2824Z" fill="#39373A"/>
<path d="M156.147 34.498H152.072C159.066 29.8561 165.224 24.0506 170.284 17.3584V31.699H180.826C179.544 32.6781 178.239 33.6111 176.9 34.498H170.295V52.0062C170.295 60.219 171.085 64.4232 180.323 61.9583L180.346 62.0043C177.61 66.9343 169.654 68.7081 163.668 66.5542C159.341 64.9991 156.158 60.4493 156.158 54.5749L156.147 34.498Z" fill="#39373A"/>
<path d="M184.638 34.498H180.563C187.557 29.8561 193.716 24.0506 198.775 17.3584V31.699H209.329C208.047 32.6781 206.742 33.6111 205.391 34.498H198.764V52.0063C198.764 60.219 199.565 64.4348 208.814 61.9583L208.837 61.9928C206.101 66.9343 198.146 68.7082 192.147 66.5657C187.821 65.0107 184.638 60.4609 184.638 54.5864V34.498Z" fill="#39373A"/>
<path d="M20.6387 59.4011L20.6502 47.7443C19.2537 49.6334 17.3077 50.9004 15.1213 52.1674C10.2335 55.0125 12.8892 62.465 16.804 62.465C18.6813 62.465 20.6387 60.8985 20.6387 59.4011ZM39.9611 61.8545C36.2752 69.3877 23.0197 69.5374 21.5087 61.3938C19.2193 67.2453 10.8631 68.7541 5.39149 66.3814C-2.26647 63.0755 -1.48808 51.3381 6.31869 49.4721C10.5884 48.447 16.3462 49.092 19.8375 45.7861C20.3068 45.3369 20.6387 44.7956 20.6387 43.9086V39.4625C20.6387 33.6456 15.625 33.0582 13.6218 34.8435C12.5458 35.7996 12.4657 37.7001 13.5302 38.6216C17.2161 41.8007 15.4075 45.7861 11.7788 47.0877C7.13142 48.7579 3.37684 46.5233 2.2436 42.8835C1.35074 40.0154 1.99177 36.1106 5.89516 33.6571C9.70697 31.2728 15.2473 30.7314 18.853 30.7314C25.0343 30.7314 34.8443 33.4038 34.8443 41.1212V58.0765C34.8443 63.3405 38.0037 62.8452 39.9611 61.8545Z" fill="#39373A"/>
<path d="M230.3 33.7259C223.397 33.7375 222.276 64.5496 230.3 64.5496C238.324 64.538 237.214 33.7375 230.3 33.7259ZM230.3 67.3717C203.732 67.3717 204.441 30.8232 230.3 30.8232C256.159 30.8232 256.88 67.3717 230.3 67.3717Z" fill="#39373A"/>
<path d="M132.086 59.4011L132.097 47.7443C130.701 49.6334 128.755 50.9004 126.568 52.1674C121.68 55.0125 124.336 62.465 128.251 62.465C130.128 62.465 132.086 60.8985 132.086 59.4011ZM151.419 61.8545C147.734 69.3877 134.489 69.5374 132.967 61.3938C130.678 67.2453 122.321 68.7541 116.838 66.3814C109.18 63.0755 109.959 51.3381 117.766 49.4721C122.035 48.447 127.793 49.092 131.284 45.7861C131.754 45.3369 132.086 44.7956 132.086 43.9086V39.4625C132.086 33.6456 127.072 33.0582 125.069 34.8435C123.993 35.7996 123.913 37.7001 124.977 38.6216C128.663 41.8007 126.854 45.7861 123.226 47.0877C118.578 48.7579 114.824 46.5233 113.69 42.8835C112.798 40.0154 113.439 36.1106 117.342 33.6571C121.154 31.2728 126.694 30.7314 130.288 30.7314C136.47 30.7314 146.28 33.4038 146.28 41.1212V58.0765C146.291 63.3405 149.451 62.8452 151.419 61.8545Z" fill="#39373A"/>
<path fill-rule="evenodd" clip-rule="evenodd" d="M218.017 12.2097H224.096C227.438 12.2097 230.174 14.9626 230.174 18.326C230.174 21.6895 227.438 24.4424 224.096 24.4424H205.849V6.09331C205.849 2.91419 208.299 0.276445 211.39 0H212.466C215.556 0.276445 218.006 2.91419 218.006 6.09331V12.2097H218.017Z" fill="#FFCC29"/>
<path d="M80.6776 86.0784C80.4486 85.7445 80.2311 85.4334 80.0365 85.1454C79.8305 84.8574 79.6359 84.5696 79.4413 84.293L78.4683 82.8878H77.9875V81.5401H78.4454L79.3154 80.3883C79.5214 80.1118 79.7275 79.8469 79.9335 79.5705C80.1396 79.3055 80.3685 78.983 80.6432 78.626H82.6121C82.2916 79.0176 81.9711 79.4093 81.6735 79.7893C81.3644 80.1695 81.0553 80.5495 80.7577 80.9412L79.5901 82.3925L79.5558 81.6323L80.8607 83.4407C81.0553 83.7172 81.2728 84.0166 81.5017 84.3391C81.7307 84.6617 81.9596 84.9727 82.1771 85.2721C82.3946 85.5717 82.5892 85.8365 82.7495 86.067H80.6776V86.0784ZM76.4193 86.0784C76.4193 85.6753 76.4193 85.2952 76.4193 84.9151C76.4193 84.5349 76.4193 84.1203 76.4193 83.648V81.1255C76.4193 80.6417 76.4193 80.2155 76.4193 79.8239C76.4193 79.4323 76.4193 79.0407 76.4193 78.6375H78.1249C78.1249 79.0407 78.1249 79.4438 78.1249 79.8239C78.1249 80.204 78.1249 80.6417 78.1249 81.1255V83.648C78.1249 84.1203 78.1249 84.5349 78.1249 84.9151C78.1249 85.2952 78.1249 85.6753 78.1249 86.0784H76.4193Z" fill="#39373A"/>
<path d="M90.2931 86.0777C90.2931 85.6745 90.2931 85.2944 90.2931 84.9143C90.2931 84.5342 90.2931 84.1195 90.2931 83.6473V81.1247C90.2931 80.6409 90.2931 80.2147 90.2931 79.8231C90.2931 79.4315 90.2931 79.0398 90.2931 78.6367H92.033C92.033 79.0398 92.033 79.443 92.033 79.8231C92.033 80.2033 92.033 80.6409 92.033 81.1247V83.6473C92.033 84.1195 92.033 84.5342 92.033 84.9143C92.033 85.2944 92.033 85.6745 92.033 86.0777H90.2931Z" fill="#39373A"/>
<path d="M101.889 86.0784C101.889 85.6753 101.889 85.2952 101.889 84.9151C101.889 84.5349 101.889 84.1203 101.889 83.648V81.3904C101.889 80.9067 101.889 80.4804 101.889 80.0888C101.889 79.7087 101.889 79.3055 101.889 78.9024L102.53 80.1234H101.545C101.156 80.1234 100.813 80.1234 100.504 80.1234C100.206 80.1234 99.9198 80.1234 99.6451 80.1234V78.626H105.815V80.1234C105.54 80.1234 105.266 80.1234 104.957 80.1234C104.659 80.1234 104.304 80.1234 103.915 80.1234H102.93L103.583 78.9024C103.583 79.3055 103.583 79.7087 103.583 80.0888C103.583 80.4804 103.583 80.9067 103.583 81.3904V83.648C103.583 84.1203 103.583 84.5349 103.583 84.9151C103.583 85.2952 103.583 85.6753 103.583 86.0784H101.889Z" fill="#39373A"/>
<path d="M116.747 86.2162C116.14 86.2162 115.602 86.1241 115.121 85.9398C114.641 85.7555 114.228 85.4906 113.885 85.145C113.542 84.7995 113.278 84.3963 113.107 83.924C112.923 83.4518 112.843 82.9335 112.843 82.3575C112.843 81.6088 112.992 80.9408 113.29 80.3648C113.587 79.7773 114.022 79.3167 114.583 78.9826C115.144 78.6485 115.82 78.4873 116.609 78.4873C116.85 78.4873 117.09 78.4988 117.319 78.5334C117.548 78.5679 117.777 78.6025 117.995 78.6601C118.212 78.7176 118.407 78.7753 118.59 78.8329C118.773 78.902 118.933 78.971 119.082 79.0517L118.956 80.6528C118.681 80.48 118.429 80.3417 118.178 80.2381C117.926 80.1345 117.685 80.0653 117.456 80.0192C117.228 79.9732 117.01 79.9501 116.804 79.9501C116.38 79.9501 116.003 80.0423 115.682 80.2266C115.35 80.4109 115.098 80.6873 114.904 81.0444C114.721 81.4014 114.618 81.8392 114.618 82.3575C114.618 82.6916 114.663 83.0026 114.766 83.2905C114.858 83.5785 115.007 83.8434 115.201 84.0738C115.396 84.3042 115.636 84.477 115.934 84.6037C116.232 84.7304 116.575 84.7995 116.964 84.7995C117.125 84.7995 117.296 84.7879 117.456 84.7649C117.617 84.7418 117.788 84.7073 117.949 84.6612C118.109 84.6151 118.281 84.546 118.441 84.4654C118.601 84.3848 118.773 84.2812 118.933 84.1544L119.025 85.7325C118.876 85.8131 118.716 85.8937 118.533 85.9514C118.349 86.0089 118.166 86.0665 117.972 86.1011C117.777 86.1472 117.571 86.1701 117.365 86.1932C117.159 86.2162 116.953 86.2162 116.747 86.2162Z" fill="#39373A"/>
<path d="M131.479 86.0777C131.479 85.6745 131.479 85.2944 131.479 84.9143C131.479 84.5342 131.479 84.1195 131.479 83.6473V81.1247C131.479 80.6409 131.479 80.2147 131.479 79.8231C131.479 79.4315 131.479 79.0398 131.479 78.6367H133.196C133.196 79.0398 133.196 79.443 133.196 79.8231C133.196 80.2033 133.196 80.6409 133.196 81.1247V83.6473C133.196 84.1195 133.196 84.5342 133.196 84.9143C133.196 85.2944 133.196 85.6745 133.196 86.0777H131.479ZM126.866 86.0777C126.866 85.6745 126.866 85.2944 126.866 84.9143C126.866 84.5342 126.866 84.1195 126.866 83.6473V81.1247C126.866 80.6409 126.866 80.2147 126.866 79.8231C126.866 79.4315 126.866 79.0398 126.866 78.6367H128.571C128.571 79.0398 128.571 79.443 128.571 79.8231C128.571 80.2033 128.571 80.6409 128.571 81.1247V83.6473C128.571 84.1195 128.571 84.5342 128.571 84.9143C128.571 85.2944 128.571 85.6745 128.571 86.0777H126.866ZM128.102 83.0483V81.62H131.971V83.0483H128.102Z" fill="#39373A"/>
<path d="M141.243 86.0777C141.243 85.6745 141.243 85.2944 141.243 84.9143C141.243 84.5342 141.243 84.1195 141.243 83.6473V81.1247C141.243 80.6409 141.243 80.2147 141.243 79.8231C141.243 79.4315 141.243 79.0398 141.243 78.6367H146.142V80.0305C145.822 80.0305 145.478 80.0305 145.124 80.0305C144.757 80.0305 144.334 80.0305 143.842 80.0305H142.102L142.914 78.9017C142.914 79.3048 142.914 79.7079 142.914 80.088C142.914 80.4797 142.914 80.9058 142.914 81.3896V83.3709C142.914 83.8315 142.914 84.2578 142.914 84.6264C142.914 85.0064 142.914 85.3981 142.914 85.7897L142.205 84.6609H143.956C144.368 84.6609 144.757 84.6609 145.124 84.6609C145.49 84.6609 145.845 84.6609 146.188 84.6609V86.0547H141.243V86.0777ZM142.514 82.9792V81.6776H143.864C144.322 81.6776 144.711 81.6776 145.032 81.6776C145.352 81.6776 145.662 81.6776 145.971 81.6776V82.9792C145.65 82.9792 145.33 82.9792 145.009 82.9792C144.689 82.9792 144.299 82.9792 143.853 82.9792H142.514Z" fill="#39373A"/>
<path d="M154.018 86.0777C154.018 85.6745 154.018 85.2944 154.018 84.9143C154.018 84.5342 154.018 84.1195 154.018 83.6473V81.1247C154.018 80.6409 154.018 80.2147 154.018 79.8231C154.018 79.4315 154.018 79.0398 154.018 78.6367H155.506C155.849 79.1436 156.181 79.6273 156.49 80.0765C156.799 80.5258 157.109 80.975 157.418 81.4357L158.62 83.1865H158.745V81.1363C158.745 80.6525 158.745 80.2263 158.745 79.8347C158.745 79.443 158.745 79.0514 158.745 78.6482H160.348C160.348 79.0514 160.348 79.4545 160.348 79.8347C160.348 80.2147 160.348 80.6525 160.348 81.1363V83.6588C160.348 84.131 160.348 84.5457 160.348 84.9259C160.348 85.3059 160.348 85.6861 160.348 86.0892H158.871C158.585 85.6745 158.288 85.2368 157.978 84.7876C157.669 84.3384 157.326 83.8431 156.96 83.3017L155.746 81.5279H155.632V83.6588C155.632 84.131 155.632 84.5457 155.632 84.9259C155.632 85.3059 155.632 85.6861 155.632 86.0892H154.018V86.0777Z" fill="#39373A"/>
<path d="M170.742 86.2168C170.433 86.2168 170.124 86.1937 169.792 86.1362C169.471 86.0901 169.162 86.021 168.887 85.9404C168.601 85.8598 168.372 85.7792 168.201 85.687L168.326 84.178C168.567 84.3163 168.819 84.4315 169.082 84.5236C169.345 84.6157 169.608 84.6964 169.86 84.7424C170.112 84.7885 170.375 84.8231 170.604 84.8231C170.845 84.8231 171.051 84.7885 171.222 84.7309C171.394 84.6734 171.532 84.5812 171.635 84.466C171.726 84.3508 171.783 84.1896 171.783 83.9938C171.783 83.7979 171.726 83.6366 171.6 83.5099C171.474 83.3833 171.291 83.268 171.062 83.176C170.822 83.0838 170.547 82.9916 170.227 82.888C169.78 82.7497 169.391 82.6 169.07 82.4272C168.75 82.2544 168.51 82.0241 168.338 81.7477C168.166 81.4712 168.086 81.1141 168.086 80.6764C168.086 80.2387 168.178 79.8586 168.372 79.5245C168.567 79.1906 168.853 78.9371 169.231 78.7413C169.62 78.557 170.101 78.4648 170.684 78.4648C170.913 78.4648 171.154 78.4763 171.383 78.5109C171.612 78.5455 171.841 78.5801 172.058 78.626C172.276 78.6721 172.482 78.7298 172.665 78.7874C172.848 78.8565 173.02 78.914 173.157 78.9832L173.031 80.4921C172.814 80.3539 172.573 80.2387 172.344 80.1465C172.104 80.0544 171.875 79.9853 171.646 79.9278C171.417 79.8817 171.211 79.8586 171.028 79.8586C170.822 79.8586 170.627 79.8817 170.456 79.9392C170.284 79.9968 170.146 80.0775 170.043 80.1926C169.94 80.3078 169.895 80.4461 169.895 80.6303C169.895 80.8031 169.94 80.9414 170.043 81.0565C170.135 81.1717 170.284 81.2753 170.49 81.3675C170.684 81.4597 170.948 81.5519 171.257 81.6439C171.852 81.8167 172.31 82.0011 172.653 82.1969C172.997 82.3927 173.237 82.623 173.386 82.8994C173.523 83.176 173.603 83.5099 173.603 83.9246C173.603 84.3854 173.5 84.777 173.306 85.111C173.111 85.4451 172.802 85.71 172.379 85.9059C171.944 86.1247 171.406 86.2168 170.742 86.2168Z" fill="#39373A"/>
<path d="M80.6776 86.0784C80.4486 85.7445 80.2311 85.4334 80.0365 85.1454C79.8305 84.8574 79.6359 84.5696 79.4413 84.293L78.4683 82.8878H77.9875V81.5401H78.4454L79.3154 80.3883C79.5214 80.1118 79.7275 79.8469 79.9335 79.5705C80.1396 79.3055 80.3685 78.983 80.6432 78.626H82.6121C82.2916 79.0176 81.9711 79.4093 81.6735 79.7893C81.3644 80.1695 81.0553 80.5495 80.7577 80.9412L79.5901 82.3925L79.5558 81.6323L80.8607 83.4407C81.0553 83.7172 81.2728 84.0166 81.5017 84.3391C81.7307 84.6617 81.9596 84.9727 82.1771 85.2721C82.3946 85.5717 82.5892 85.8365 82.7495 86.067H80.6776V86.0784ZM76.4193 86.0784C76.4193 85.6753 76.4193 85.2952 76.4193 84.9151C76.4193 84.5349 76.4193 84.1203 76.4193 83.648V81.1255C76.4193 80.6417 76.4193 80.2155 76.4193 79.8239C76.4193 79.4323 76.4193 79.0407 76.4193 78.6375H78.1249C78.1249 79.0407 78.1249 79.4438 78.1249 79.8239C78.1249 80.204 78.1249 80.6417 78.1249 81.1255V83.648C78.1249 84.1203 78.1249 84.5349 78.1249 84.9151C78.1249 85.2952 78.1249 85.6753 78.1249 86.0784H76.4193Z" stroke="#39373A" stroke-width="0.8963" stroke-miterlimit="25.3694"/>
<path d="M90.2931 86.0777C90.2931 85.6745 90.2931 85.2944 90.2931 84.9143C90.2931 84.5342 90.2931 84.1195 90.2931 83.6473V81.1247C90.2931 80.6409 90.2931 80.2147 90.2931 79.8231C90.2931 79.4315 90.2931 79.0398 90.2931 78.6367H92.033C92.033 79.0398 92.033 79.443 92.033 79.8231C92.033 80.2033 92.033 80.6409 92.033 81.1247V83.6473C92.033 84.1195 92.033 84.5342 92.033 84.9143C92.033 85.2944 92.033 85.6745 92.033 86.0777H90.2931Z" stroke="#39373A" stroke-width="0.8963" stroke-miterlimit="25.3694"/>
<path d="M101.889 86.0784C101.889 85.6753 101.889 85.2952 101.889 84.9151C101.889 84.5349 101.889 84.1203 101.889 83.648V81.3904C101.889 80.9067 101.889 80.4804 101.889 80.0888C101.889 79.7087 101.889 79.3055 101.889 78.9024L102.53 80.1234H101.545C101.156 80.1234 100.813 80.1234 100.504 80.1234C100.206 80.1234 99.9198 80.1234 99.6451 80.1234V78.626H105.815V80.1234C105.54 80.1234 105.266 80.1234 104.957 80.1234C104.659 80.1234 104.304 80.1234 103.915 80.1234H102.93L103.583 78.9024C103.583 79.3055 103.583 79.7087 103.583 80.0888C103.583 80.4804 103.583 80.9067 103.583 81.3904V83.648C103.583 84.1203 103.583 84.5349 103.583 84.9151C103.583 85.2952 103.583 85.6753 103.583 86.0784H101.889Z" stroke="#39373A" stroke-width="0.8963" stroke-miterlimit="25.3694"/>
<path d="M116.747 86.2162C116.14 86.2162 115.602 86.1241 115.121 85.9398C114.641 85.7555 114.228 85.4906 113.885 85.145C113.542 84.7995 113.278 84.3963 113.107 83.924C112.923 83.4518 112.843 82.9335 112.843 82.3575C112.843 81.6088 112.992 80.9408 113.29 80.3648C113.587 79.7773 114.022 79.3167 114.583 78.9826C115.144 78.6485 115.82 78.4873 116.609 78.4873C116.85 78.4873 117.09 78.4988 117.319 78.5334C117.548 78.5679 117.777 78.6025 117.995 78.6601C118.212 78.7176 118.407 78.7753 118.59 78.8329C118.773 78.902 118.933 78.971 119.082 79.0517L118.956 80.6528C118.681 80.48 118.429 80.3417 118.178 80.2381C117.926 80.1345 117.685 80.0653 117.456 80.0192C117.228 79.9732 117.01 79.9501 116.804 79.9501C116.38 79.9501 116.003 80.0423 115.682 80.2266C115.35 80.4109 115.098 80.6873 114.904 81.0444C114.721 81.4014 114.618 81.8392 114.618 82.3575C114.618 82.6916 114.663 83.0026 114.766 83.2905C114.858 83.5785 115.007 83.8434 115.201 84.0738C115.396 84.3042 115.636 84.477 115.934 84.6037C116.232 84.7304 116.575 84.7995 116.964 84.7995C117.125 84.7995 117.296 84.7879 117.456 84.7649C117.617 84.7418 117.788 84.7073 117.949 84.6612C118.109 84.6151 118.281 84.546 118.441 84.4654C118.601 84.3848 118.773 84.2812 118.933 84.1544L119.025 85.7325C118.876 85.8131 118.716 85.8937 118.533 85.9514C118.349 86.0089 118.166 86.0665 117.972 86.1011C117.777 86.1472 117.571 86.1701 117.365 86.1932C117.159 86.2162 116.953 86.2162 116.747 86.2162Z" stroke="#39373A" stroke-width="0.8963" stroke-miterlimit="25.3694"/>
<path d="M131.479 86.0777C131.479 85.6745 131.479 85.2944 131.479 84.9143C131.479 84.5342 131.479 84.1195 131.479 83.6473V81.1247C131.479 80.6409 131.479 80.2147 131.479 79.8231C131.479 79.4315 131.479 79.0398 131.479 78.6367H133.196C133.196 79.0398 133.196 79.443 133.196 79.8231C133.196 80.2033 133.196 80.6409 133.196 81.1247V83.6473C133.196 84.1195 133.196 84.5342 133.196 84.9143C133.196 85.2944 133.196 85.6745 133.196 86.0777H131.479ZM126.866 86.0777C126.866 85.6745 126.866 85.2944 126.866 84.9143C126.866 84.5342 126.866 84.1195 126.866 83.6473V81.1247C126.866 80.6409 126.866 80.2147 126.866 79.8231C126.866 79.4315 126.866 79.0398 126.866 78.6367H128.571C128.571 79.0398 128.571 79.443 128.571 79.8231C128.571 80.2033 128.571 80.6409 128.571 81.1247V83.6473C128.571 84.1195 128.571 84.5342 128.571 84.9143C128.571 85.2944 128.571 85.6745 128.571 86.0777H126.866ZM128.102 83.0483V81.62H131.971V83.0483H128.102Z" stroke="#39373A" stroke-width="0.8963" stroke-miterlimit="25.3694"/>
<path d="M141.243 86.0777C141.243 85.6745 141.243 85.2944 141.243 84.9143C141.243 84.5342 141.243 84.1195 141.243 83.6473V81.1247C141.243 80.6409 141.243 80.2147 141.243 79.8231C141.243 79.4315 141.243 79.0398 141.243 78.6367H146.142V80.0305C145.822 80.0305 145.478 80.0305 145.124 80.0305C144.757 80.0305 144.334 80.0305 143.842 80.0305H142.102L142.914 78.9017C142.914 79.3048 142.914 79.7079 142.914 80.088C142.914 80.4797 142.914 80.9058 142.914 81.3896V83.3709C142.914 83.8315 142.914 84.2578 142.914 84.6264C142.914 85.0064 142.914 85.3981 142.914 85.7897L142.205 84.6609H143.956C144.368 84.6609 144.757 84.6609 145.124 84.6609C145.49 84.6609 145.845 84.6609 146.188 84.6609V86.0547H141.243V86.0777ZM142.514 82.9792V81.6776H143.864C144.322 81.6776 144.711 81.6776 145.032 81.6776C145.352 81.6776 145.662 81.6776 145.971 81.6776V82.9792C145.65 82.9792 145.33 82.9792 145.009 82.9792C144.689 82.9792 144.299 82.9792 143.853 82.9792H142.514Z" stroke="#39373A" stroke-width="0.8963" stroke-miterlimit="25.3694"/>
<path d="M154.018 86.0777C154.018 85.6745 154.018 85.2944 154.018 84.9143C154.018 84.5342 154.018 84.1195 154.018 83.6473V81.1247C154.018 80.6409 154.018 80.2147 154.018 79.8231C154.018 79.4315 154.018 79.0398 154.018 78.6367H155.506C155.849 79.1436 156.181 79.6273 156.49 80.0765C156.799 80.5258 157.109 80.975 157.418 81.4357L158.62 83.1865H158.745V81.1363C158.745 80.6525 158.745 80.2263 158.745 79.8347C158.745 79.443 158.745 79.0514 158.745 78.6482H160.348C160.348 79.0514 160.348 79.4545 160.348 79.8347C160.348 80.2147 160.348 80.6525 160.348 81.1363V83.6588C160.348 84.131 160.348 84.5457 160.348 84.9259C160.348 85.3059 160.348 85.6861 160.348 86.0892H158.871C158.585 85.6745 158.288 85.2368 157.978 84.7876C157.669 84.3384 157.326 83.8431 156.96 83.3017L155.746 81.5279H155.632V83.6588C155.632 84.131 155.632 84.5457 155.632 84.9259C155.632 85.3059 155.632 85.6861 155.632 86.0892H154.018V86.0777Z" stroke="#39373A" stroke-width="0.8963" stroke-miterlimit="25.3694"/>
<path d="M170.742 86.2168C170.433 86.2168 170.124 86.1937 169.792 86.1362C169.471 86.0901 169.162 86.021 168.887 85.9404C168.601 85.8598 168.372 85.7792 168.201 85.687L168.326 84.178C168.567 84.3163 168.819 84.4315 169.082 84.5236C169.345 84.6157 169.608 84.6964 169.86 84.7424C170.112 84.7885 170.375 84.8231 170.604 84.8231C170.845 84.8231 171.051 84.7885 171.222 84.7309C171.394 84.6734 171.532 84.5812 171.635 84.466C171.726 84.3508 171.783 84.1896 171.783 83.9938C171.783 83.7979 171.726 83.6366 171.6 83.5099C171.474 83.3833 171.291 83.268 171.062 83.176C170.822 83.0838 170.547 82.9916 170.227 82.888C169.78 82.7497 169.391 82.6 169.07 82.4272C168.75 82.2544 168.51 82.0241 168.338 81.7477C168.166 81.4712 168.086 81.1141 168.086 80.6764C168.086 80.2387 168.178 79.8586 168.372 79.5245C168.567 79.1906 168.853 78.9371 169.231 78.7413C169.62 78.557 170.101 78.4648 170.684 78.4648C170.913 78.4648 171.154 78.4763 171.383 78.5109C171.612 78.5455 171.841 78.5801 172.058 78.626C172.276 78.6721 172.482 78.7298 172.665 78.7874C172.848 78.8565 173.02 78.914 173.157 78.9832L173.031 80.4921C172.814 80.3539 172.573 80.2387 172.344 80.1465C172.104 80.0544 171.875 79.9853 171.646 79.9278C171.417 79.8817 171.211 79.8586 171.028 79.8586C170.822 79.8586 170.627 79.8817 170.456 79.9392C170.284 79.9968 170.146 80.0775 170.043 80.1926C169.94 80.3078 169.895 80.4461 169.895 80.6303C169.895 80.8031 169.94 80.9414 170.043 81.0565C170.135 81.1717 170.284 81.2753 170.49 81.3675C170.684 81.4597 170.948 81.5519 171.257 81.6439C171.852 81.8167 172.31 82.0011 172.653 82.1969C172.997 82.3927 173.237 82.623 173.386 82.8994C173.523 83.176 173.603 83.5099 173.603 83.9246C173.603 84.3854 173.5 84.777 173.306 85.111C173.111 85.4451 172.802 85.71 172.379 85.9059C171.944 86.1247 171.406 86.2168 170.742 86.2168Z" stroke="#39373A" stroke-width="0.8963" stroke-miterlimit="25.3694"/>
</g>
<defs>
<clipPath id="clip0_142_8">
<rect width="250" height="86.5385" fill="white"/>
</clipPath>
</defs>
</svg>
