<svg  viewBox="0 0 32 32" fill="none" xmlns="http://www.w3.org/2000/svg">
<symbol id="Ins">
<circle cx="16.1315" cy="15.6579" r="15.6579" fill="#FFCC29"/>
<g clip-path="url(#clip0_100_2256)">
<path d="M19.9341 7.15784H13.2236C10.1356 7.15784 7.63147 9.66198 7.63147 12.7499V19.4605C7.63147 22.5484 10.1356 25.0526 13.2236 25.0526H19.9341C23.0221 25.0526 25.5262 22.5484 25.5262 19.4605V12.7499C25.5262 9.66198 23.0221 7.15784 19.9341 7.15784ZM23.8486 19.4605C23.8486 21.619 22.0927 23.3749 19.9341 23.3749H13.2236C11.065 23.3749 9.3091 21.619 9.3091 19.4605V12.7499C9.3091 10.5914 11.065 8.83547 13.2236 8.83547H19.9341C22.0927 8.83547 23.8486 10.5914 23.8486 12.7499V19.4605Z" fill="#39373A"/>
<path d="M16.5788 11.6315C14.1082 11.6315 12.1051 13.6346 12.1051 16.1052C12.1051 18.5757 14.1082 20.5788 16.5788 20.5788C19.0494 20.5788 21.0525 18.5757 21.0525 16.1052C21.0525 13.6346 19.0494 11.6315 16.5788 11.6315ZM16.5788 18.9012C15.0376 18.9012 13.7827 17.6463 13.7827 16.1052C13.7827 14.5629 15.0376 13.3091 16.5788 13.3091C18.12 13.3091 19.3748 14.5629 19.3748 16.1052C19.3748 17.6463 18.12 18.9012 16.5788 18.9012Z" fill="#39373A"/>
<path d="M21.3881 11.8921C21.7173 11.8921 21.9842 11.6252 21.9842 11.2959C21.9842 10.9667 21.7173 10.6998 21.3881 10.6998C21.0589 10.6998 20.792 10.9667 20.792 11.2959C20.792 11.6252 21.0589 11.8921 21.3881 11.8921Z" fill="#39373A"/>
</g>
<defs>
<clipPath id="clip0_100_2256">
<rect width="17.8947" height="17.8947" fill="white" transform="translate(7.63147 7.15784)"/>
</clipPath>
</defs>
</svg>
