<svg  viewBox="0 0 33 32" fill="none" xmlns="http://www.w3.org/2000/svg">
<symbol id="You">
<circle cx="16.6053" cy="15.6579" r="15.6579" fill="#FFCC29"/>
<g clip-path="url(#clip0_100_2273)">
<path d="M25.2394 11.1394C24.754 10.276 24.2273 10.1171 23.1547 10.0568C22.0833 9.98405 19.389 9.95386 17.0548 9.95386C14.7162 9.95386 12.0208 9.98405 10.9505 10.0556C9.88016 10.1171 9.35226 10.2748 8.8624 11.1394C8.36246 12.0017 8.10522 13.4869 8.10522 16.1018C8.10522 16.1041 8.10522 16.1052 8.10522 16.1052C8.10522 16.1074 8.10522 16.1085 8.10522 16.1085V16.1108C8.10522 18.7144 8.36246 20.2109 8.8624 21.0643C9.35226 21.9277 9.87904 22.0843 10.9494 22.1569C12.0208 22.2196 14.7162 22.2565 17.0548 22.2565C19.389 22.2565 22.0833 22.2196 23.1558 22.1581C24.2284 22.0854 24.7552 21.9288 25.2406 21.0654C25.745 20.212 26 18.7156 26 16.1119C26 16.1119 26 16.1085 26 16.1063C26 16.1063 26 16.1041 26 16.1029C26 13.4869 25.745 12.0017 25.2394 11.1394ZM14.8158 19.4604V12.7499L20.4079 16.1052L14.8158 19.4604Z" fill="#39373A"/>
</g>
<defs>
<clipPath id="clip0_100_2273">
<rect width="17.8947" height="17.8947" fill="white" transform="translate(8.10522 7.15784)"/>
</clipPath>
</defs>
</svg>
