<svg width="60" height="60" fill="none" xmlns="http://www.w3.org/2000/svg"><g clip-path="url(#clip0_142_191)"><path d="M30 60c16.569 0 30-13.431 30-30C60 13.431 46.569 0 30 0 13.431 0 0 13.431 0 30c0 16.569 13.431 30 30 30z" fill="#FFDC29"/><path d="M39.98 58.298c9.177-3.237 16.307-10.81 18.93-20.26l-24.411-24.41s-10.396 8.707-9.97 11.096l4.77 4.712-1.597 16.584L39.98 58.298z" fill="#FFA929"/><path class="number" d="M34.499 13.628V46.02h-6.797V21.99l-3.172 2.734-4.438-5.148 6.49-5.595.409-.353h7.508z" fill="#F8FFFB"/><path class="number" d="M30 13.628h4.499V46.02H30V13.628z" fill="#D8D8D8"/></g><defs><clipPath id="clip0_142_191"><path fill="#fff" d="M0 0h60v60H0z"/></clipPath></defs></svg>