   <svg  viewBox="0 0 60 60" fill="none" xmlns="http://www.w3.org/2000/svg">
   <symbol id="three">
    <g clip-path="url(#clip0_142_216)">
    <path d="M30 60C46.5685 60 60 46.5685 60 30C60 13.4315 46.5685 0 30 0C13.4315 0 0 13.4315 0 30C0 46.5685 13.4315 60 30 60Z" fill="#FFCC29"/>
    <path d="M30.253 40.1247L26.333 36.6478L22.0638 42.5514L38.3383 58.8244C48.4264 55.9112 56.328 47.8464 59.0108 37.6627L38.3215 16.9736L19.3899 22.185L27.7016 30.4788L27.2768 32.3697L33.8058 38.6837C33.8058 38.6836 31.5625 40.3668 30.253 40.1247Z" fill="#FFA929"/>
    <path class="num" d="M38.3215 16.9739C36.4415 14.8787 33.3015 13.6279 29.9219 13.6279C29.237 13.6279 28.5501 13.6908 27.8802 13.8149L27.6739 13.853C25.6175 14.2329 23.7545 15.1782 22.2862 16.5863C20.8475 17.967 19.8863 19.7011 19.5065 21.6011L19.3898 22.1853L26.3328 22.7106L26.474 22.3457C26.8764 21.3062 27.8465 20.5273 29.0056 20.313L29.212 20.2749C30.5214 20.033 31.8661 20.4747 32.7221 21.4286C33.857 22.6929 33.7437 24.7241 32.4745 25.8642C31.8597 26.4167 28.8334 27.0545 27.8268 27.0126L27.2768 26.989V32.37L27.8268 32.3465C28.8401 32.3039 31.8599 32.9425 32.4746 33.4948C33.7437 34.6349 33.857 36.6661 32.722 37.9306C31.8661 38.8844 30.5213 39.3262 29.2118 39.0842L29.0057 39.0461C27.8465 38.8317 26.8764 38.0528 26.474 37.0133L26.3328 36.6484L19.3898 37.1738L19.5065 37.758C19.8862 39.6579 20.8473 41.3921 22.2863 42.7729C23.7544 44.181 25.6175 45.1261 27.6739 45.506L27.88 45.5441C28.5501 45.6682 29.237 45.7312 29.9219 45.7312C33.3015 45.7312 36.4415 44.4803 38.3214 42.3852C41.4892 38.8553 41.3399 33.3673 38.0511 29.6795C41.3399 25.9917 41.4893 20.5037 38.3215 16.9739Z" fill="#F8FFFB"/>
    <path class="num" d="M38.0508 29.6789C41.3402 33.3668 41.4891 38.8547 38.3215 42.3856C36.4559 44.4633 33.3504 45.7113 30 45.7301V39.1477C31.0406 39.1278 32.0391 38.693 32.7223 37.9301C33.8566 36.6656 33.7441 34.6348 32.475 33.4945C32.1352 33.1899 31.0629 32.8582 30 32.6297V26.7281C31.0629 26.4996 32.1352 26.1691 32.475 25.8645C33.7441 24.7242 33.8566 22.6934 32.7223 21.4289C32.0391 20.666 31.0406 20.2313 30 20.2113V13.6289C33.3504 13.6477 36.4559 14.8945 38.3215 16.9734C41.4891 20.5031 41.3402 25.991 38.0508 29.6789Z" fill="#D8D8D8"/>
    </g>
    <defs>
    <clipPath id="clip0_142_216">
    <rect fill="white"/>
    </clipPath>
    </defs>
</svg>
