<svg width="60" height="60" fill="none" xmlns="http://www.w3.org/2000/svg"><g clip-path="url(#clip0_142_225)"><path d="M30 60c16.569 0 30-13.431 30-30C60 13.431 46.569 0 30 0 13.431 0 0 13.431 0 30c0 16.569 13.431 30 30 30z" fill="#FFCC29"/><path d="M59.63 34.719L38.89 13.98 17.982 37.972l20.739 20.739c10.854-3.293 19.104-12.57 20.908-23.992z" fill="#FFA929"/><path class="num" d="M38.891 31.175V13.98h-8.826L17.981 31.314v6.658h14.112v8.048h6.797v-8.048h4.344v-6.797H38.89zm-6.797 0h-5.73l5.73-8.22v8.22z" fill="#F8FFFB"/><path class="num" d="M38.891 31.175V13.98h-8.826l-.065.093v11.886l2.094-3.003v8.22H30v6.796h2.094v8.048h6.797v-8.048h4.344v-6.797h-4.344z" fill="#D8D8D8"/></g><defs><clipPath id="clip0_142_225"><path fill="#fff" d="M0 0h60v60H0z"/></clipPath></defs></svg>